<?xml version="1.0" standalone="no"?>
<!DOCTYPE svg PUBLIC "-//W3C//DTD SVG 1.1//EN" "http://www.w3.org/Graphics/SVG/1.1/DTD/svg11.dtd" >
<svg xmlns="http://www.w3.org/2000/svg" xmlns:xlink="http://www.w3.org/1999/xlink" version="1.1">
<metadata>
Created by FontForge 20150318 at Mon Sep  7 13:54:50 2015
 By uniteet7
Copyright (c) 2012 by Margaret Calvert &#38; Henrik Kubel. All rights reserved.
</metadata>
<defs>
<font id="" horiz-adv-x="799" >
  <font-face 
    font-family=""
    font-weight="400"
    font-stretch="normal"
    units-per-em="2048"
    panose-1="2 0 5 3 4 0 0 2 0 4"
    ascent="1638"
    descent="-410"
    x-height="1022"
    cap-height="1434"
    bbox="-52 -450.911 2052 1846"
    underline-thickness="147"
    underline-position="-239"
    unicode-range="U+0020-2265"
  />
<missing-glyph horiz-adv-x="2048" 
 />
    <glyph glyph-name=".notdef" horiz-adv-x="2048" 
 />
    <glyph glyph-name=".null" horiz-adv-x="0" 
 />
    <glyph glyph-name="nonmarkingreturn" horiz-adv-x="682" 
 />
    <glyph glyph-name="space" unicode=" " horiz-adv-x="410" 
 />
    <glyph glyph-name="space" unicode="&#xa0;" horiz-adv-x="410" 
 />
    <glyph glyph-name="exclam" unicode="!" horiz-adv-x="551" 
d="M184 1434h185l-23 -949h-143zM158 96q0 24 9 45.5t24.5 37t37 25t45.5 9.5t45.5 -9.5t37 -25t25 -37t9.5 -45.5t-9.5 -45.5t-25 -37t-37 -24.5t-45.5 -9t-45.5 9t-37 24.5t-24.5 37t-9 45.5z" />
    <glyph glyph-name="quotedbl" unicode="&#x22;" horiz-adv-x="922" 
d="M152 1434h182v-562h-182v562zM590 1434h180v-562h-180v562z" />
    <glyph glyph-name="numbersign" unicode="#" horiz-adv-x="1393" 
d="M528 555h336v326h-336v-326zM375 555v326h-252v135h252v418h153v-418h336v418h154v-418h252v-135h-252v-326h252v-133h-252v-422h-154v422h-336v-422h-153v422h-252v133h252z" />
    <glyph glyph-name="dollar" unicode="$" horiz-adv-x="1229" 
d="M229 317q34 -43 77 -78t92.5 -60t104.5 -39q30 -7 60 -10v536l-10 4l-35 10q-68 21 -131.5 51t-112 75t-77.5 107.5t-29 149.5q0 76 31 146.5t91.5 124.5t148.5 86q57 20 124 28v192h127v-190q41 -3 81 -12q63 -13 119 -37t105 -58.5t88 -76.5l-116 -109q-28 30 -61.5 57
t-74 47t-87.5 32q-26 6 -54 9v-499q36 -11 74 -24q53 -17 102 -40.5t92.5 -55t76 -73.5t51 -96t18.5 -123q0 -90 -36 -165t-100.5 -130t-153.5 -86q-58 -19 -124 -26v-189h-127v187q-55 4 -106 17q-74 18 -136.5 48.5t-113 70.5t-88.5 83zM741 144q58 17 100.5 49.5
t66.5 79.5t24 106q0 73 -29.5 118.5t-81 75.5t-120.5 51l-11 3v-495q26 4 51 12zM526 1289q-55 -15 -96 -44.5t-64.5 -73t-23.5 -98.5q0 -59 22.5 -100t62 -69.5t91.5 -48.5q22 -8 45 -16v459q-19 -4 -37 -9z" />
    <glyph glyph-name="percent" unicode="%" horiz-adv-x="1667" 
d="M1182 1434h164l-873 -1434h-164zM442 778q-71 0 -132.5 26t-108 71.5t-73 107.5t-26.5 133t26.5 132.5t73 106.5t108 71t132.5 26q72 0 134 -26t108.5 -71t73 -106.5t26.5 -132.5t-26.5 -133t-73 -107.5t-108.5 -71.5t-134 -26zM442 1307q-41 0 -74.5 -14t-57.5 -39.5
t-37 -60.5t-13 -77q0 -41 13 -76.5t37 -61t57.5 -40t74.5 -14.5q42 0 76.5 14.5t58.5 40t37 61t13 76.5q0 42 -13 77t-37 60.5t-58.5 39.5t-76.5 14zM1223 -20q-71 0 -133 26t-108 71.5t-72.5 107t-26.5 132.5t26.5 132.5t72.5 106.5t108 71t133 26t133.5 -26t109 -71
t73 -106.5t26.5 -132.5t-26.5 -132.5t-73 -107t-109 -71.5t-133.5 -26zM1223 508q-42 0 -75.5 -14t-57.5 -39.5t-37 -60.5t-13 -77q0 -41 13 -76.5t37 -61t57.5 -40t75.5 -14.5t76 14.5t58 40t37 61t13 76.5q0 42 -13 77t-37 60.5t-58 39.5t-76 14z" />
    <glyph glyph-name="ampersand" unicode="&#x26;" horiz-adv-x="1305" 
d="M264 395q0 -55 20.5 -103t57 -83t87 -55.5t110.5 -20.5q55 0 99.5 14t76 31t50 32t21.5 17l-325 475q-39 -26 -75 -56.5t-63 -68t-43 -82.5t-16 -100zM426 1141q0 -54 24 -110t70 -124q57 32 99 61.5t69.5 59t41 60.5t13.5 67q0 37 -13 65t-34.5 47.5t-49.5 29.5t-58 10
q-32 0 -61 -11t-51.5 -32t-36 -52t-13.5 -71zM86 399q0 69 18.5 128.5t55.5 111.5t92 99t127 91l-45 76q-37 62 -55.5 118.5t-18.5 113.5q0 65 24.5 122.5t68 100t104.5 67.5t133 25q65 0 123 -21t101 -59.5t68 -94t25 -124.5q0 -68 -24.5 -120t-65.5 -95t-96.5 -79.5
t-116.5 -72.5l299 -434q27 34 50.5 82.5t42 98.5t32 94.5t19.5 70.5h176q-6 -46 -24.5 -108t-47 -128t-65.5 -131t-80 -116l6 -8q15 -21 29 -35t28.5 -22.5t31 -12.5t36.5 -4q10 0 22.5 1.5t24.5 3t21.5 3t13.5 2.5l4 -151q-34 -5 -63.5 -8.5t-61.5 -3.5q-60 0 -111.5 18.5
t-91.5 69.5l-25 30q-139 -118 -344 -118q-86 0 -165.5 29.5t-140.5 84t-97.5 132t-36.5 173.5z" />
    <glyph glyph-name="quotesingle" unicode="'" horiz-adv-x="485" 
d="M152 1434h182v-562h-182v562z" />
    <glyph glyph-name="parenleft" unicode="(" horiz-adv-x="793" 
d="M281 541q0 -135 31.5 -255.5t90.5 -226.5t144 -197.5t192 -166.5l-86 -117l-51 37q-137 98 -233.5 206.5t-158 225.5t-90 242.5t-28.5 257.5t28.5 257.5t90 242.5t158 225.5t233.5 206.5l51 37l86 -117q-107 -75 -192 -166.5t-144 -197.5t-90.5 -227t-31.5 -255v-12z" />
    <glyph glyph-name="parenright" unicode=")" horiz-adv-x="793" 
d="M512 553q0 134 -31.5 255t-90.5 227t-144 197.5t-193 166.5l86 117l51 -37q137 -98 233.5 -206.5t158 -225.5t90 -242.5t28.5 -257.5t-28.5 -257.5t-90 -242.5t-158 -225.5t-233.5 -206.5l-51 -37l-86 117q108 75 193 166.5t144 197.5t90.5 226.5t31.5 255.5v12z" />
    <glyph glyph-name="asterisk" unicode="*" horiz-adv-x="1024" 
d="M596 1434l-25 -320l283 133l61 -160l-309 -79l236 -250l-123 -105l-207 277l-205 -277l-123 105l236 250l-311 79l63 160l281 -133l-25 320h168z" />
    <glyph glyph-name="plus" unicode="+" horiz-adv-x="1106" 
d="M469 668h-332v161h332v349h166v-349h332v-161h-332v-349h-166v349z" />
    <glyph glyph-name="comma" unicode="," horiz-adv-x="557" 
d="M270 213q28 0 53.5 -11t44 -30.5t29.5 -47.5t11 -61q0 -36 -13 -74t-40 -72t-68 -62t-97 -43l-22 -7l-21 68l13 4q46 16 81 45t48 64h-21q-24 0 -44.5 8.5t-36 23.5t-24.5 35.5t-9 44.5t9 45t24.5 36.5t37 24.5t45.5 9z" />
    <glyph glyph-name="hyphen" unicode="-" horiz-adv-x="512" 
d="M41 659h430v-147h-430v147z" />
    <glyph glyph-name="period" unicode="." horiz-adv-x="541" 
d="M154 96q0 24 9.5 45.5t25 37t36.5 25t45 9.5t45.5 -9.5t37 -25t25 -37t9.5 -45.5t-9.5 -45t-25 -36.5t-37 -25t-45.5 -9.5t-45 9.5t-36.5 25t-25 36.5t-9.5 45z" />
    <glyph glyph-name="slash" unicode="/" horiz-adv-x="815" 
d="M573 1434h172l-501 -1434h-174z" />
    <glyph glyph-name="zero" unicode="0" horiz-adv-x="1286" 
d="M643 135q70 0 130.5 37t104 106.5t68.5 171t25 230.5v72q0 129 -25 230t-68.5 171t-104 106.5t-130.5 36.5q-71 0 -131 -36.5t-103.5 -106.5t-68.5 -171t-25 -230v-72q0 -129 25 -230.5t68.5 -171t103.5 -106.5t131 -37zM643 1452q92 0 166 -29t130.5 -79.5t97 -120.5
t66.5 -151.5t38 -172.5t12 -184t-12 -183.5t-38 -172t-66.5 -151t-97 -120.5t-130.5 -79.5t-166 -28.5t-166 28.5t-130.5 79.5t-97 120.5t-66.5 151t-38 172t-12 183.5t12 184t38 172.5t66.5 151.5t97 120.5t130.5 79.5t166 29z" />
    <glyph glyph-name="one" unicode="1" horiz-adv-x="756" 
d="M125 1202q70 0 114 11.5t68 36.5t32.5 64.5t8.5 96.5v23h170v-1434h-176v1053h-279v149h62z" />
    <glyph glyph-name="two" unicode="2" horiz-adv-x="1219" 
d="M375 154h715v-154h-955v168q137 92 247 170t194 147.5t144.5 132.5t99.5 125t57 125t18 133q0 60 -20.5 114t-59 94.5t-95 64.5t-128.5 24q-58 0 -111.5 -16.5t-95 -52.5t-67.5 -92.5t-29 -135.5l-166 19q4 100 39 180t96.5 136t147 86t190.5 30q102 0 189.5 -33.5
t152 -93.5t101 -142t36.5 -179q0 -115 -39.5 -216t-120.5 -198.5t-205.5 -196.5t-293.5 -209l-41 -26v-4z" />
    <glyph glyph-name="three" unicode="3" horiz-adv-x="1227" 
d="M268 367q41 -103 125 -168.5t223 -65.5q76 0 133.5 20.5t96.5 56.5t58.5 83t19.5 102q0 121 -94.5 187.5t-243.5 66.5h-62v154h56q82 0 142 22.5t100 59.5t59.5 83t19.5 93q0 45 -18.5 88t-53 77t-88 53t-120.5 19q-119 0 -202 -61t-122 -152l-147 72q61 141 187 218
t284 77q100 0 184 -28.5t145.5 -81t96 -123t34.5 -152.5q0 -66 -20.5 -120t-56 -97t-85 -71.5t-104.5 -39.5q64 -10 118 -40.5t93 -75.5t61.5 -103.5t22.5 -122.5q0 -102 -40 -180t-108.5 -131t-157.5 -79.5t-188 -26.5q-176 0 -315 81.5t-197 233.5z" />
    <glyph glyph-name="four" unicode="4" horiz-adv-x="1296" 
d="M803 518v764l-553 -764h553zM803 0v371h-721v174l649 889h248v-916h235v-147h-235v-371h-176z" />
    <glyph glyph-name="five" unicode="5" horiz-adv-x="1210" 
d="M150 729l75 705h819v-154h-677l-43 -408q58 56 139 84.5t166 28.5q102 0 188.5 -37.5t150 -103.5t99 -156t35.5 -194q0 -116 -37.5 -211t-105.5 -162.5t-162 -104t-207 -36.5q-89 0 -168.5 20.5t-143.5 62t-109.5 103t-64.5 143.5l175 37q11 -43 37 -81.5t66 -68
t92 -46.5t116 -17q77 0 138 26t103 72.5t64.5 110.5t22.5 139q0 78 -22.5 142t-65 110.5t-103.5 72t-139 25.5q-37 0 -75.5 -9t-74 -25t-66.5 -39t-53 -51z" />
    <glyph glyph-name="six" unicode="6" horiz-adv-x="1264" 
d="M123 674q0 97 13.5 192.5t42 182.5t73 161t108 128t146 85t186.5 31q75 0 140 -17.5t118.5 -48t95.5 -72.5t72 -91l-172 -54q-96 138 -254 138q-103 0 -176.5 -49t-121.5 -129.5t-71.5 -184t-25.5 -213.5h4q18 37 53.5 73t85 65t112 47t134.5 18q102 0 187.5 -35.5
t148 -98.5t97 -149t34.5 -186q0 -103 -36.5 -192.5t-102 -155.5t-156.5 -104t-199 -38q-114 0 -212 43t-170 127t-113 207.5t-41 284.5v35zM328 461q0 -75 24.5 -136.5t67.5 -106t102.5 -69t130.5 -24.5q69 0 128 23.5t102 66.5t67.5 104t24.5 136q0 76 -24 137.5t-67 105
t-102.5 67t-130.5 23.5t-130.5 -23.5t-102.5 -66.5t-66.5 -103.5t-23.5 -133.5z" />
    <glyph glyph-name="seven" unicode="7" horiz-adv-x="1081" 
d="M836 1274h-760v160h940v-160l-533 -1274h-196z" />
    <glyph glyph-name="eight" unicode="8" horiz-adv-x="1249" 
d="M625 1452q91 0 176.5 -25.5t152 -74t106.5 -120.5t40 -165q0 -48 -12.5 -96.5t-41 -92t-75.5 -78.5t-115 -57q76 -21 130.5 -59.5t90 -87.5t52 -104.5t16.5 -112.5q0 -98 -44 -173t-117 -125t-166.5 -75.5t-192.5 -25.5t-193 25.5t-167 75.5t-117 125t-44 173
q0 57 16.5 112.5t52 104.5t90 87.5t130.5 59.5q-68 22 -114.5 57t-75 78.5t-41 92t-12.5 96.5q0 93 40 165t106 120.5t151.5 74t177.5 25.5zM326 1053q0 -59 25 -105.5t66 -78t95 -48t113 -16.5q58 0 112 16.5t95.5 48t66.5 78t25 105.5t-25 105t-66.5 77.5t-95.5 48
t-112 16.5q-59 0 -113 -16.5t-95 -48t-66 -77.5t-25 -105zM283 393q0 -67 28 -116t75 -81.5t109 -48.5t130 -16q67 0 129 16t109.5 48.5t75.5 81.5t28 116t-28 116t-75.5 81.5t-109.5 48.5t-129 16q-68 0 -130 -16t-109 -48.5t-75 -81.5t-28 -116z" />
    <glyph glyph-name="nine" unicode="9" horiz-adv-x="1262" 
d="M1139 758q0 -97 -13.5 -193t-42 -182.5t-73.5 -161t-108.5 -128.5t-146 -85t-186.5 -31q-75 0 -139.5 17.5t-118.5 48.5t-96 73t-72 91l172 53q50 -69 112 -103t142 -34q69 0 124.5 22.5t99 62t75 93.5t52.5 118t32 135t13 144h-4q-19 -37 -54.5 -73t-85 -64.5
t-112 -46.5t-134.5 -18q-102 0 -187.5 35.5t-147.5 98t-96.5 148.5t-34.5 187q0 103 36.5 192t101.5 155t156 104t199 38q114 0 212 -43t170 -127t113.5 -207.5t41.5 -283.5v-35zM934 971q0 74 -24.5 136t-68 106.5t-103 69t-130.5 24.5q-69 0 -128 -23.5t-101.5 -66.5
t-67 -104t-24.5 -136q0 -76 24 -138t67 -105.5t102 -67t130 -23.5q72 0 131.5 23.5t102 66.5t66.5 103.5t24 134.5z" />
    <glyph glyph-name="colon" unicode=":" horiz-adv-x="541" 
d="M154 96q0 24 9.5 45.5t25 37t36.5 25t45 9.5t45.5 -9.5t37 -25t25 -37t9.5 -45.5t-9.5 -45t-25 -36.5t-37 -25t-45.5 -9.5t-45 9.5t-36.5 25t-25 36.5t-9.5 45zM154 905q0 24 9.5 45.5t25 37t36.5 25t45 9.5t45.5 -9.5t37 -25t25 -37t9.5 -45.5t-9.5 -45t-25 -37
t-37 -25.5t-45.5 -9.5t-45 9.5t-36.5 25.5t-25 37t-9.5 45z" />
    <glyph glyph-name="semicolon" unicode=";" horiz-adv-x="557" 
d="M154 905q0 24 9.5 45.5t25 37t36.5 25t45 9.5t45.5 -9.5t37 -25t25 -37t9.5 -45.5t-9.5 -45t-25 -37t-37 -25.5t-45.5 -9.5t-45 9.5t-36.5 25.5t-25 37t-9.5 45zM270 213q28 0 53.5 -11t44 -30.5t29.5 -47.5t11 -61q0 -36 -13 -74t-40 -72t-68 -62t-97 -43l-22 -7l-21 68
l13 4q46 16 81 45t48 64h-21q-24 0 -44.5 8.5t-36 23.5t-24.5 35.5t-9 44.5t9 45t24.5 36.5t37 24.5t45.5 9z" />
    <glyph glyph-name="equal" unicode="=" horiz-adv-x="1106" 
d="M137 612h830v-159h-830v159zM137 1044h830v-159h-830v159z" />
    <glyph glyph-name="question" unicode="?" horiz-adv-x="948" 
d="M369 485v21q0 87 22.5 149.5t56 109t73 83t73 73t56 77.5t22.5 98q0 40 -14.5 76t-42 62.5t-67 42t-89.5 15.5q-42 0 -80.5 -9.5t-73 -25.5t-64.5 -37t-53 -44l-116 118q34 39 78.5 68.5t96.5 49.5t108 30t112 10q81 0 153 -24.5t126 -70t85 -111t31 -146.5
q0 -64 -15.5 -112t-39.5 -85.5t-54 -68.5t-59 -60q-32 -32 -59 -60t-47 -58.5t-31.5 -67.5t-11.5 -86v-17h-176zM334 96q0 24 9 45.5t24.5 37t37 25t46.5 9.5q24 0 45 -9.5t36.5 -25t25 -37t9.5 -45.5t-9.5 -45.5t-25 -37t-36.5 -24.5t-45 -9q-25 0 -46.5 9t-37 24.5
t-24.5 37t-9 45.5z" />
    <glyph glyph-name="at" unicode="@" horiz-adv-x="2052" 
d="M1305 137q-23 -32 -50.5 -60t-65 -50t-87.5 -34.5t-117 -12.5q-99 0 -181 39.5t-140.5 110t-90.5 167.5t-32 213t30.5 213.5t87.5 168.5t137 110.5t179 39.5t176.5 -37t122.5 -100v117h168v-768q0 -25 6.5 -51t21.5 -47.5t39.5 -35.5t59.5 -14q48 0 91 31t75 88.5
t50.5 138.5t18.5 181q0 173 -58.5 315.5t-162 244.5t-244 158t-305.5 56q-110 0 -210.5 -28.5t-188 -80t-159 -124t-122 -161t-78.5 -190t-28 -211.5q0 -109 28 -211t78.5 -190t122 -161t159 -125t188 -80.5t210.5 -28.5q96 0 184 21.5t168 60.5l89 -107
q-100 -53 -213.5 -78.5t-235.5 -25.5q-129 0 -247.5 32.5t-221.5 92.5t-186.5 144t-143.5 187t-92.5 221.5t-32.5 247.5t34 248t95 222t147 187.5t190.5 144.5t223.5 93t248 33t246.5 -30t218.5 -86t183.5 -136t140.5 -181t89.5 -220.5t31.5 -253.5q0 -67 -10 -134.5
t-31.5 -130t-53.5 -117.5t-75.5 -95.5t-99.5 -64t-124 -23.5q-66 0 -111.5 18t-75 43.5t-44.5 52t-20 43.5zM715 506q0 -80 19 -149t55.5 -119.5t91 -79.5t125.5 -29q67 0 117.5 23t84.5 63t51 94.5t17 118.5v166q0 64 -17 118.5t-51 94.5t-84.5 63t-117.5 23
q-71 0 -125.5 -29t-91 -79.5t-55.5 -119.5t-19 -149v-10z" />
    <glyph glyph-name="A" unicode="A" horiz-adv-x="1274" 
d="M913 344h-563l-100 -344h-187l445 1434h254l448 -1434h-194zM393 494h477l-231 782h-16z" />
    <glyph glyph-name="B" unicode="B" horiz-adv-x="1337" 
d="M739 1434q85 0 160 -25.5t131 -72.5t88.5 -113.5t32.5 -147.5q0 -53 -17.5 -103t-47.5 -92.5t-71 -75t-89 -50.5q54 -8 109.5 -34.5t99.5 -71t72 -105.5t28 -137q0 -105 -39.5 -182t-106.5 -126.5t-156.5 -73.5t-189.5 -24h-546v1434h542zM1053 408q0 65 -24.5 113.5
t-67 80t-100 47t-122.5 15.5h-366v-517h372q63 0 119 15t98 46.5t66.5 81t24.5 118.5zM973 1051q0 48 -15.5 90.5t-50 74.5t-88.5 51t-131 19h-315v-477h315q77 0 131 19.5t88.5 52.5t50 77t15.5 93z" />
    <glyph glyph-name="C" unicode="C" horiz-adv-x="1372" 
d="M113 715q0 154 43 288.5t124 234t196.5 157t260.5 57.5q101 0 185.5 -26.5t151.5 -75t116.5 -117t81.5 -152.5l-168 -57q-16 49 -47 98t-77 88t-107 63.5t-136 24.5q-112 0 -194.5 -47.5t-136.5 -126.5t-80.5 -182.5t-26.5 -214.5v-25q0 -111 26.5 -214t80.5 -181.5
t136.5 -126t194.5 -47.5q75 0 136 24.5t107 63.5t77 88t47 99l168 -58q-32 -84 -81.5 -152t-116.5 -116.5t-151.5 -75t-185.5 -26.5q-145 0 -260.5 57t-196.5 156t-124 233t-43 289z" />
    <glyph glyph-name="D" unicode="D" horiz-adv-x="1434" 
d="M1315 717q0 -161 -40 -293.5t-122 -226.5t-205.5 -145.5t-290.5 -51.5h-460v1434h460q167 0 290.5 -51.5t205.5 -145.5t122 -226.5t40 -293.5zM1126 745q0 112 -28 210t-85.5 170.5t-147 114.5t-212.5 42h-280v-1130h280q123 0 212.5 41.5t147 114t85.5 170.5t28 210v57z
" />
    <glyph glyph-name="E" unicode="E" horiz-adv-x="1196" 
d="M197 1434h858v-152h-682v-471h626v-152h-626v-507h721v-152h-897v1434z" />
    <glyph glyph-name="F" unicode="F" horiz-adv-x="1145" 
d="M197 1434h858v-152h-682v-471h626v-152h-626v-659h-176v1434z" />
    <glyph glyph-name="G" unicode="G" horiz-adv-x="1440" 
d="M739 133q78 0 138.5 20t105 53t75.5 76t49.5 89.5t27 93t8.5 86.5v59h-402v148h559v-758h-159v193q-37 -59 -84 -100t-100 -66t-111.5 -36t-118.5 -11q-147 0 -261 57t-192.5 156t-119.5 233t-41 289q0 154 45 288.5t128 234t200.5 157t263.5 57.5q90 0 170.5 -21.5
t148.5 -61t122 -94t91 -120.5l-149 -78q-26 50 -62 90.5t-83 69.5t-105.5 45t-128.5 16q-112 0 -197 -47.5t-142.5 -126.5t-86.5 -182.5t-29 -214.5v-25q0 -111 26.5 -214t81 -181.5t137.5 -126t195 -47.5z" />
    <glyph glyph-name="H" unicode="H" horiz-adv-x="1501" 
d="M1128 659h-755v-659h-176v1434h176v-623h755v623h177v-1434h-177v659z" />
    <glyph glyph-name="I" unicode="I" horiz-adv-x="569" 
d="M197 1434h176v-1434h-176v1434z" />
    <glyph glyph-name="J" unicode="J" horiz-adv-x="844" 
d="M68 168q34 -11 67 -19q29 -7 61.5 -12.5t59.5 -5.5q77 0 121.5 17t67.5 52t29.5 87.5t6.5 124.5v1022h176v-1141q0 -89 -32 -148.5t-85 -96.5t-121.5 -52.5t-142.5 -15.5q-66 0 -132.5 11t-125.5 29z" />
    <glyph glyph-name="K" unicode="K" horiz-adv-x="1284" 
d="M197 1434h176v-768l620 768h215l-469 -566l516 -868h-206l-428 739l-248 -307v-432h-176v1434z" />
    <glyph glyph-name="L" unicode="L" horiz-adv-x="989" 
d="M197 1434h176v-1276h573v-158h-749v1434z" />
    <glyph glyph-name="M" unicode="M" horiz-adv-x="1729" 
d="M1315 1434h217v-1434h-178v1226l-490 -669h-2l-493 668v-1225h-172v1434h224l446 -610z" />
    <glyph glyph-name="N" unicode="N" horiz-adv-x="1563" 
d="M369 1225v-1225h-172v1434h241l756 -1225v1225h172v-1434h-242z" />
    <glyph glyph-name="O" unicode="O" horiz-adv-x="1479" 
d="M113 715q0 154 43.5 288.5t124.5 234t197 157t261 57.5t261 -57.5t197.5 -157t125 -234t43.5 -288.5q0 -155 -43.5 -289t-125 -233t-197.5 -156t-261 -57t-261 57t-197 156t-124.5 233t-43.5 289zM1180 729q0 111 -25.5 214t-79.5 182t-137.5 126t-198.5 47t-198 -47
t-137 -126t-79.5 -182t-25.5 -214v-27q0 -111 25.5 -214t79.5 -181.5t137 -126t198 -47.5t198.5 47.5t137.5 126t79.5 181.5t25.5 214v27z" />
    <glyph glyph-name="P" unicode="P" horiz-adv-x="1212" 
d="M197 1434h503q101 0 183 -33.5t140.5 -93t90 -142.5t31.5 -182q0 -100 -34.5 -182.5t-96.5 -141.5t-147.5 -91.5t-186.5 -32.5h-307v-535h-176v1434zM958 987q0 63 -20 117t-58 93.5t-92.5 62t-123.5 22.5h-291v-596h291q69 0 123.5 22t92.5 60.5t58 92t20 116.5v10z" />
    <glyph glyph-name="Q" unicode="Q" horiz-adv-x="1479" 
d="M113 715q0 154 43.5 288.5t124.5 234t197 157t261 57.5t261 -57.5t197.5 -157t125 -234t43.5 -288.5q0 -155 -43.5 -289t-125.5 -233q-24 -30 -52 -56l149 -184l-123 -98l-154 191q-8 -5 -17 -9q-116 -57 -261 -57t-261 57t-197 156t-124.5 233t-43.5 289zM1180 729
q0 111 -25.5 214t-79.5 182t-137.5 126t-198.5 47t-198 -47t-137 -126t-79.5 -182t-25.5 -214v-27q0 -111 25.5 -214t79.5 -181.5t137 -126t198 -47.5q101 0 178 37l-227 283l123 98l230 -286q17 20 32 41q54 79 79.5 182t25.5 214v27z" />
    <glyph glyph-name="R" unicode="R" horiz-adv-x="1280" 
d="M197 1434h489q100 0 187 -25t151.5 -77.5t101.5 -133.5t37 -192q0 -68 -19 -129.5t-55 -113t-89.5 -91t-122.5 -64.5l313 -608h-197l-286 573h-334v-573h-176v1434zM696 727q61 0 113 18.5t90 53.5t59 86t21 116q0 67 -21 119.5t-59 88.5t-90 54.5t-113 18.5h-323v-555
h323z" />
    <glyph glyph-name="S" unicode="S" horiz-adv-x="1231" 
d="M193 332q94 -105 202.5 -152t227.5 -47q82 0 146.5 20.5t108.5 56.5t66.5 82t22.5 97q0 72 -30 116t-79 71.5t-113.5 43t-134.5 29.5l-20 4q-47 9 -97.5 19t-99.5 26.5t-95 40t-81 58.5q-47 43 -77.5 105.5t-30.5 154.5q0 65 28.5 135t91 128t159.5 95t235 37
q153 0 282 -55q53 -23 101.5 -54.5t95.5 -78.5l-133 -109q-74 74 -169 108.5t-194 34.5q-71 0 -129.5 -17t-100.5 -49t-64.5 -74t-22.5 -91q0 -68 29.5 -110t77.5 -67.5t108.5 -39.5t122.5 -27l10 -2q100 -20 193.5 -46.5t163 -73t111.5 -117t42 -181.5q0 -79 -33 -156
t-98.5 -136.5t-164.5 -95t-233 -35.5q-104 0 -192 22.5t-162 58.5q-55 29 -106.5 67t-102.5 91z" />
    <glyph glyph-name="T" unicode="T" horiz-adv-x="1069" 
d="M43 1434h983v-158h-403v-1276h-177v1276h-403v158z" />
    <glyph glyph-name="U" unicode="U" horiz-adv-x="1423" 
d="M711 133q70 0 134.5 22.5t114 69.5t79.5 119.5t30 173.5v916h172v-940q0 -118 -41 -213t-112 -162t-168 -103t-209 -36q-111 0 -207.5 36t-168 103t-112.5 162t-41 213v940h174v-916q0 -101 29.5 -173.5t78.5 -119.5t113.5 -69.5t133.5 -22.5z" />
    <glyph glyph-name="V" unicode="V" horiz-adv-x="1225" 
d="M997 1434h187l-445 -1434h-254l-448 1434h194l377 -1282h17z" />
    <glyph glyph-name="W" unicode="W" horiz-adv-x="1843" 
d="M1321 254h10l244 1180h180l-319 -1434h-209l-305 1171l-304 -1171h-210l-318 1434h178l248 -1180h12l312 1180h170z" />
    <glyph glyph-name="X" unicode="X" horiz-adv-x="1184" 
d="M1118 1434l-428 -682l463 -752h-201l-362 598l-369 -598h-188l463 741l-424 693h200l326 -539l332 539h188z" />
    <glyph glyph-name="Y" unicode="Y" horiz-adv-x="1204" 
d="M252 1434l352 -680h4l351 680h192l-461 -848v-586h-176v586l-463 848h201z" />
    <glyph glyph-name="Z" unicode="Z" horiz-adv-x="1141" 
d="M846 1276h-723v158h909v-183l-756 -1093h764v-158h-948v182z" />
    <glyph glyph-name="bracketleft" unicode="[" horiz-adv-x="829" 
d="M668 1501v-155h-316v-1553h316v-155h-492v1863h492z" />
    <glyph glyph-name="backslash" unicode="\" horiz-adv-x="815" 
d="M745 0h-172l-503 1434h174z" />
    <glyph glyph-name="bracketright" unicode="]" horiz-adv-x="829" 
d="M653 1501v-1863h-491v155h315v1553h-315v155h491z" />
    <glyph glyph-name="asciicircum" unicode="^" horiz-adv-x="1106" 
d="M864 797h-172l-139 499l-137 -499h-174l198 637h226z" />
    <glyph glyph-name="underscore" unicode="_" horiz-adv-x="1024" 
d="M61 -219h902v-147h-902v147z" />
    <glyph glyph-name="grave" unicode="`" 
d="M481 1141h-129l-127 293h215z" />
    <glyph glyph-name="a" unicode="a" horiz-adv-x="1030" 
d="M735 102q-45 -52 -121.5 -87t-179.5 -35q-76 0 -141 21.5t-113 61.5t-75 97t-27 129q0 60 19.5 109.5t55 86.5t85.5 60.5t112 32.5l361 49v65q0 58 -18 97.5t-48.5 62.5t-72 33t-89.5 10q-86 0 -160.5 -24t-134.5 -56l-63 133q88 50 184.5 72t190.5 22q187 0 283 -84.5
t96 -246.5v-471q0 -51 20 -85.5t64 -54.5l-95 -120q-48 12 -82.5 42.5t-48.5 73.5zM436 455q-42 -6 -76.5 -17t-58.5 -29.5t-37.5 -45.5t-13.5 -66q0 -45 17 -80t46 -59t67.5 -36.5t80.5 -12.5q47 0 92 13t80 37.5t56.5 59.5t21.5 80v197z" />
    <glyph glyph-name="b" unicode="b" horiz-adv-x="1149" 
d="M322 0h-168v1434h168v-529q45 63 122 100t177 37q99 0 179 -39.5t137 -110.5t87.5 -168.5t30.5 -213.5t-30.5 -213t-87.5 -167.5t-137 -110t-179 -39.5q-100 0 -177 37t-122 100v-117zM881 516q0 80 -19 149t-56 119.5t-91.5 79.5t-124.5 29q-67 0 -117.5 -23t-84.5 -63
t-51.5 -94.5t-17.5 -118.5v-166q0 -64 17.5 -118.5t51.5 -94.5t84.5 -63t117.5 -23q70 0 124.5 29t91.5 79.5t56 119.5t19 149v10z" />
    <glyph glyph-name="c" unicode="c" horiz-adv-x="1047" 
d="M266 506q0 -77 19 -146t56 -120.5t92.5 -82t129.5 -30.5q48 0 88.5 13.5t73 36.5t58 54.5t44.5 67.5l140 -80q-26 -54 -66.5 -98.5t-92.5 -75.5t-114 -48t-131 -17q-106 0 -192.5 39.5t-148.5 110t-96 167.5t-34 213q0 117 34 214.5t96 168t148.5 110t192.5 39.5
q69 0 131 -17t114 -48t92.5 -75.5t66.5 -98.5l-140 -80q-19 36 -44.5 67.5t-58 54.5t-73 36.5t-88.5 13.5q-74 0 -129.5 -30.5t-92.5 -82t-56 -120.5t-19 -146v-10z" />
    <glyph glyph-name="d" unicode="d" horiz-adv-x="1149" 
d="M827 117q-45 -63 -122.5 -100t-176.5 -37t-179 39.5t-137 110t-87.5 167.5t-30.5 213t30.5 213.5t87.5 168.5t137 110.5t179 39.5t176.5 -37t122.5 -100v529h168v-1434h-168v117zM268 506q0 -80 19 -149t56 -119.5t91 -79.5t125 -29q67 0 117.5 23t84.5 63t51 94.5
t17 118.5v166q0 64 -17 118.5t-51 94.5t-84.5 63t-117.5 23q-71 0 -125 -29t-91 -79.5t-56 -119.5t-19 -149v-10z" />
    <glyph glyph-name="e" unicode="e" horiz-adv-x="1073" 
d="M268 459q5 -72 29 -133t65.5 -105.5t98 -69t125.5 -24.5q85 0 149.5 28.5t118.5 71.5l86 -121q-69 -55 -159.5 -90.5t-202.5 -35.5q-111 0 -201 39.5t-153.5 110t-97.5 168t-34 212.5q0 117 33.5 214.5t94.5 168t146 110t189 39.5q101 0 182 -39.5t138 -110t87.5 -168
t30.5 -212.5v-53h-725zM549 895q-64 0 -114 -25t-85.5 -67t-56 -96.5t-23.5 -112.5h541q-2 59 -20.5 113.5t-52 96t-81 66.5t-108.5 25z" />
    <glyph glyph-name="f" unicode="f" horiz-adv-x="653" 
d="M393 1022h203v-148h-203v-874h-168v874h-170v148h170v190q0 66 21 112t58.5 74.5t89 41t112.5 12.5q62 0 103 -5.5t61 -8.5l-13 -144q-15 1 -34.5 3t-40 3t-39.5 2t-31 1q-36 0 -59 -10.5t-36.5 -27.5t-18.5 -39t-5 -46v-158z" />
    <glyph glyph-name="g" unicode="g" horiz-adv-x="1120" 
d="M96 567q0 101 29 188t83 150.5t130.5 100t171.5 36.5q84 0 160 -32.5t129 -104.5v117h168v-1022q0 -95 -38.5 -159.5t-100.5 -103.5t-140.5 -56t-159.5 -17q-45 0 -93.5 5t-97.5 15t-96.5 25.5t-90.5 36.5l61 141q30 -14 63 -27.5t71.5 -24.5t82.5 -18t96 -7
q64 0 115.5 13t86.5 40.5t54 70t19 101.5v194q-53 -72 -129 -104.5t-160 -32.5q-95 0 -171.5 36.5t-130.5 100.5t-83 150.5t-29 187.5zM803 571q0 69 -15 127.5t-47 102t-81.5 68t-118.5 24.5q-70 0 -121 -25t-84.5 -68.5t-49.5 -102.5t-16 -126v-8q0 -67 16 -125.5
t49.5 -102t84.5 -68.5t121 -25q69 0 118.5 24.5t81.5 67.5t47 102t15 127v8z" />
    <glyph glyph-name="h" unicode="h" horiz-adv-x="1108" 
d="M154 1434h168v-529q52 71 128.5 104t170.5 33q85 0 149 -28t107 -76t64.5 -111t21.5 -133v-694h-168v641q0 67 -16.5 114.5t-45 77t-67 43t-82.5 13.5q-48 0 -95 -17.5t-84 -52.5t-60 -88t-23 -125v-606h-168v1434z" />
    <glyph glyph-name="i" unicode="i" horiz-adv-x="475" 
d="M322 0h-168v1022h168v-1022zM123 1317q0 24 9.5 45t25 37t37 25.5t45.5 9.5t45 -9.5t36.5 -25.5t25 -37t9.5 -45t-9.5 -45.5t-25 -37t-36.5 -25t-45 -9.5t-45.5 9.5t-37 25t-25 37t-9.5 45.5z" />
    <glyph glyph-name="j" unicode="j" horiz-adv-x="475" 
d="M322 -162q0 -51 -17.5 -84.5t-45 -53.5t-62.5 -28t-70 -8q-48 0 -90 5.5t-57 8.5l22 138q14 -3 36.5 -4.5t35.5 -1.5q28 0 44.5 6t24 17t9.5 26.5t2 34.5v1128h168v-1184zM123 1317q0 24 9.5 45t25 37t37 25.5t45.5 9.5t45 -9.5t36.5 -25.5t25 -37t9.5 -45t-9.5 -45.5
t-25 -37t-36.5 -25t-45 -9.5t-45.5 9.5t-37 25t-25 37t-9.5 45.5z" />
    <glyph glyph-name="k" unicode="k" horiz-adv-x="1067" 
d="M322 520l481 502h211l-389 -406l407 -616h-205l-321 504l-184 -189v-315h-168v1434h168v-914z" />
    <glyph glyph-name="l" unicode="l" horiz-adv-x="541" 
d="M147 1434h168v-1205q0 -25 4.5 -44t15.5 -32t30.5 -19.5t48.5 -6.5q32 0 58 2t46 4l17 -141l-58 -6q-25 -2 -55 -4t-57 -2q-45 0 -85 10.5t-69.5 34.5t-46.5 62t-17 93v1254z" />
    <glyph glyph-name="m" unicode="m" horiz-adv-x="1667" 
d="M920 0h-168v643q0 68 -16.5 115t-44 76t-65 42t-79.5 13t-82.5 -16.5t-72 -51.5t-51 -88.5t-19.5 -128.5v-604h-168v1022h168v-117q51 71 118.5 104t149.5 33q34 0 74 -9.5t78.5 -29.5t71 -52.5t52.5 -78.5q28 47 64.5 79.5t77 52.5t84 29t86.5 9q83 0 147 -28t108 -75
t66.5 -109t22.5 -130v-700h-168v643q0 68 -17 115t-46 76t-67 42t-79 13q-42 0 -82.5 -16.5t-72 -51.5t-51 -88.5t-19.5 -128.5v-604z" />
    <glyph glyph-name="n" unicode="n" horiz-adv-x="1108" 
d="M154 1022h168v-117q52 71 128.5 104t170.5 33q85 0 149 -28t107 -76t64.5 -111t21.5 -133v-694h-168v641q0 67 -16.5 114.5t-45 77t-67 43t-82.5 13.5q-48 0 -94.5 -17.5t-84 -52.5t-60.5 -88t-23 -125v-606h-168v1022z" />
    <glyph glyph-name="o" unicode="o" horiz-adv-x="1126" 
d="M563 1042q106 0 193 -39.5t148.5 -110t95.5 -168t34 -214.5q0 -115 -34 -212.5t-95.5 -168t-148.5 -110t-193 -39.5t-192.5 39.5t-148.5 110t-96 168t-34 212.5q0 117 34 214.5t96 168t148.5 110t192.5 39.5zM563 127q73 0 128.5 30.5t93 82.5t56.5 120.5t19 143.5v12
q0 77 -19 146t-56.5 120.5t-93 82t-128.5 30.5t-128.5 -30.5t-93 -82t-56.5 -120.5t-19 -146v-12q0 -75 19 -143.5t56.5 -120.5t93 -82.5t128.5 -30.5z" />
    <glyph glyph-name="p" unicode="p" horiz-adv-x="1149" 
d="M322 1022v-117q45 63 122 100t177 37q99 0 179 -39.5t137 -110.5t87.5 -168.5t30.5 -213.5t-30.5 -213t-87.5 -167.5t-137 -110t-179 -39.5q-100 0 -177 37t-122 100v-428h-168v1333h168zM881 516q0 80 -19 149t-56 119.5t-91.5 79.5t-124.5 29q-67 0 -117.5 -23
t-84.5 -63t-51.5 -94.5t-17.5 -118.5v-166q0 -64 17.5 -118.5t51.5 -94.5t84.5 -63t117.5 -23q70 0 124.5 29t91.5 79.5t56 119.5t19 149v10z" />
    <glyph glyph-name="q" unicode="q" horiz-adv-x="1149" 
d="M995 1022v-1333h-168v428q-45 -63 -122.5 -100t-176.5 -37t-179 39.5t-137 110t-87.5 167.5t-30.5 213t30.5 213.5t87.5 168.5t137 110.5t179 39.5t176.5 -37t122.5 -100v117h168zM268 506q0 -80 19 -149t56 -119.5t91 -79.5t125 -29q67 0 117.5 23t84.5 63t51 94.5
t17 118.5v166q0 64 -17 118.5t-51 94.5t-84.5 63t-117.5 23q-71 0 -125 -29t-91 -79.5t-56 -119.5t-19 -149v-10z" />
    <glyph glyph-name="r" unicode="r" horiz-adv-x="719" 
d="M676 872h-27q-65 0 -124 -15t-104 -54t-72 -106.5t-27 -172.5v-524h-168v1022h168v-162q19 45 51 79t72.5 56.5t87 33.5t94.5 11h49v-168z" />
    <glyph glyph-name="s" unicode="s" horiz-adv-x="942" 
d="M838 283q0 -72 -31.5 -128.5t-83.5 -95.5t-119.5 -59t-138.5 -20q-112 0 -215.5 38.5t-183.5 110.5l92 119q24 -21 55.5 -44t70.5 -42.5t84 -32t95 -12.5q41 0 78.5 10.5t65.5 31t44.5 49t16.5 64.5q0 40 -17.5 67t-47.5 46t-70 33t-84 28l-64 21q-54 18 -104 41
t-88.5 56.5t-61 79.5t-22.5 110q0 52 22 103.5t67.5 92.5t115.5 66.5t165 25.5q105 0 194.5 -35t151.5 -87l-88 -121q-22 21 -52 40t-64 33.5t-71 23.5t-73 9q-55 0 -93 -12.5t-61 -32.5t-33.5 -45t-10.5 -49q0 -35 15 -58.5t39.5 -40.5t56 -29t65.5 -24l84 -28
q60 -20 110 -42.5t88 -51.5q48 -38 74.5 -88t26.5 -121z" />
    <glyph glyph-name="t" unicode="t" horiz-adv-x="756" 
d="M418 254q0 -26 3.5 -48.5t17 -39.5t39.5 -27t71 -10q12 0 28.5 1t34.5 2.5t35 4t29 4.5l18 -147q-29 -4 -60 -7q-26 -3 -58 -5t-64 -2q-61 0 -109.5 12.5t-82.5 40.5t-52 73.5t-18 110.5v657h-193v148h193v334l168 59v-393h284v-148h-284v-620z" />
    <glyph glyph-name="u" unicode="u" horiz-adv-x="1108" 
d="M954 0h-168v117q-52 -71 -128.5 -104t-170.5 -33q-85 0 -149 28t-107 76t-64.5 111t-21.5 133v694h168v-641q0 -68 16.5 -115t45 -76.5t67 -43t82.5 -13.5q52 0 99.5 17.5t83.5 52.5t57.5 88t21.5 125v606h168v-1022z" />
    <glyph glyph-name="v" unicode="v" horiz-adv-x="969" 
d="M373 0l-324 1022h191l245 -866l244 866h191l-324 -1022h-223z" />
    <glyph glyph-name="w" unicode="w" horiz-adv-x="1464" 
d="M1038 199l185 823h178l-250 -1022h-215l-207 819l-211 -819h-207l-248 1022h181l178 -823l215 823h190z" />
    <glyph glyph-name="x" unicode="x" horiz-adv-x="958" 
d="M381 539l-313 483h192l219 -352l209 352h195l-312 -483l355 -539h-201l-256 397l-233 -397h-199z" />
    <glyph glyph-name="y" unicode="y" horiz-adv-x="956" 
d="M41 1022h190l252 -844l240 844h188l-372 -1176q-17 -54 -44 -88.5t-61.5 -55t-76.5 -28.5t-89 -8q-42 0 -87 4.5t-95 12.5l25 147q20 -4 43 -7q19 -3 43 -5t49 -2q55 0 85.5 24t43.5 78l10 47z" />
    <glyph glyph-name="z" unicode="z" horiz-adv-x="930" 
d="M80 152l557 722h-524v148h710v-156l-555 -721h582v-145h-770v152z" />
    <glyph glyph-name="braceleft" unicode="{" horiz-adv-x="770" 
d="M229 377q0 75 -26 107t-92 32h-35v156h35q66 0 92 32t26 107v475q0 66 24 112t65.5 75t96 42t115.5 13q15 0 39.5 -1.5t49 -4t46 -5t31.5 -4.5l-12 -149q-15 1 -34 2.5t-37.5 3t-36 2t-29.5 0.5q-40 0 -66.5 -10.5t-42 -29t-22 -45t-6.5 -58.5v-418q0 -50 -12 -86.5
t-33 -62.5t-49.5 -42.5t-61.5 -25.5q33 -9 61.5 -25.5t49.5 -42.5t33 -62.5t12 -86.5v-418q0 -32 6.5 -58.5t22 -45.5t42 -29t66.5 -10q12 0 29.5 0.5t36 2t37.5 2.5t34 3l12 -150q-10 -2 -31.5 -4t-46 -4.5t-49 -4t-39.5 -1.5q-61 0 -115.5 13t-96 42t-65.5 75t-24 112v475
z" />
    <glyph glyph-name="bar" unicode="|" horiz-adv-x="518" 
d="M342 1638v-1843h-166v1843h166z" />
    <glyph glyph-name="braceright" unicode="}" horiz-adv-x="770" 
d="M541 -98q0 -66 -24 -112t-65.5 -75t-96 -42t-115.5 -13q-15 0 -39.5 1.5t-49 4t-46 4.5t-31.5 4l12 150q15 -2 34 -3t37.5 -2.5t36 -2t29.5 -0.5q40 0 66.5 10t42 29t22 45.5t6.5 58.5v418q0 50 12 86.5t33 62.5t49.5 42.5t61.5 25.5q-33 9 -61.5 25.5t-49.5 42.5
t-33 62.5t-12 86.5v418q0 32 -6.5 58.5t-22 45t-42 29t-66.5 10.5q-12 0 -29.5 -0.5t-36 -2t-37.5 -3t-34 -2.5l-12 149q10 2 31.5 4.5t46 5t49 4t39.5 1.5q61 0 115.5 -13t96 -42t65.5 -75t24 -112v-475q0 -75 26 -107t92 -32h35v-156h-35q-66 0 -92 -32t-26 -107v-475z
" />
    <glyph glyph-name="asciitilde" unicode="~" horiz-adv-x="1106" 
d="M768 791q35 0 47 17.5t14 49.5v8h138v-28q0 -95 -41.5 -150t-132.5 -55q-25 0 -64.5 5.5t-84.5 14t-93 18.5t-90 18.5t-75.5 14t-49.5 5.5q-35 0 -47.5 -18t-14.5 -50v-8h-137v29q0 47 10 85t31 64.5t54 40.5t79 14q25 0 64.5 -5.5t85.5 -14t93.5 -18l90 -18t75.5 -14
t48 -5.5z" />
    <glyph glyph-name="exclamdown" unicode="&#xa1;" horiz-adv-x="514" 
d="M167 -432.912h185l-23 948.941h-143zM141 905.006q0 -23.998 9 -45.4971t24.5 -36.998t37 -24.998q21.5 -9.5 45.5 -9.5t45.5 9.5q21.5 9.49902 37 24.998t25 36.998t9.5 45.4971t-9.5 45.4971t-25 36.998t-37 24.498q-21.5 9 -45.5 9t-45.5 -9
q-21.5 -8.99902 -37 -24.498t-24.5 -36.998t-9 -45.4971z" />
    <glyph glyph-name="cent" unicode="&#xa2;" horiz-adv-x="1071" 
d="M479 1456h131v-199q42 -4 82 -15q62 -17 114 -48t92.5 -75.5t66.5 -98.5l-140 -80q-19 36 -44.5 67.5t-58 54.5t-73.5 36q-19 7 -39 10v-761q20 4 39 10q41 14 73.5 37t58 54.5t44.5 67.5l140 -80q-26 -54 -66.5 -98.5t-92.5 -75.5t-114 -48q-40 -11 -82 -15v-222h-131
v226q-59 10 -111 33q-86 40 -148 110.5t-96 167.5t-34 213q0 117 34 214.5t96 168t148 109.5q52 24 111 33v204zM264 723q0 -77 19 -146t56 -120.5t92 -82.5q23 -12 48 -19v746q-25 -7 -48 -20q-55 -30 -92 -81.5t-56 -120.5t-19 -146v-10z" />
    <glyph glyph-name="sterling" unicode="&#xa3;" horiz-adv-x="1169" 
d="M913 1171q-35 56 -101 91.5t-153 35.5q-62 0 -110 -22t-81 -62.5t-50 -97t-17 -125.5v-221l332 2v-147h-332v-473h639v-152h-921v152h106v473h-106v147h106v227q0 108 31 192t88 142t137 88.5t178 30.5q132 0 228 -48.5t157 -131.5z" />
    <glyph glyph-name="yen" unicode="&#xa5;" horiz-adv-x="1274" 
d="M145 625h384l-112 206h-272v148h191l-248 455h201l352 -680h4l351 680h192l-248 -455h184v-148h-264l-112 -206h376v-148h-397v-477h-176v477h-406v148z" />
    <glyph glyph-name="dieresis" unicode="&#xa8;" 
d="M111 1309q0 24 9.5 45t25 36.5t36.5 25t45 9.5t45.5 -9.5t37 -25t25 -36.5t9.5 -45t-9.5 -45.5t-25 -37t-37 -25t-45.5 -9.5t-45 9.5t-36.5 25t-25 37t-9.5 45.5zM455 1309q0 24 9.5 45t25 36.5t36.5 25t45 9.5t45.5 -9.5t37 -25t25 -36.5t9.5 -45t-9.5 -45.5t-25 -37
t-37 -25t-45.5 -9.5t-45 9.5t-36.5 25t-25 37t-9.5 45.5z" />
    <glyph glyph-name="copyright" unicode="&#xa9;" horiz-adv-x="1747" 
d="M100 715q0 107 27.5 206t77.5 185t120.5 156.5t156 121t184.5 78t206 27.5t206 -27.5t185 -78t157 -121t121.5 -156.5t78 -185t27.5 -206t-27.5 -206t-78 -184.5t-121.5 -156t-157 -120.5t-185 -77.5t-206 -27.5t-206 27.5t-184.5 77.5t-156 120.5t-120.5 156
t-77.5 184.5t-27.5 206zM225 715q0 -92 22.5 -176.5t64 -158t100 -134t130 -103.5t155 -66.5t175.5 -23.5q138 0 256.5 52t206 141.5t137.5 210t50 258.5q0 137 -50 258t-137.5 211t-206 142t-256.5 52q-137 0 -255.5 -52t-205.5 -142t-136.5 -211t-49.5 -258zM602 719
q0 -68 15 -131.5t48 -112t84.5 -77.5t124.5 -29q46 0 82 13t63.5 35.5t47.5 53t35 66.5l133 -37q-19 -56 -52 -103.5t-79 -82t-103.5 -54.5t-126.5 -20q-98 0 -176 37t-132.5 102t-83.5 152t-29 188q0 100 29 187.5t83.5 152.5t132.5 102t176 37q69 0 126.5 -20t103.5 -55
t79 -82.5t52 -102.5l-133 -37q-15 35 -35 66t-47.5 53.5t-63.5 35.5t-82 13q-73 0 -124.5 -29t-84.5 -77.5t-48 -112t-15 -131.5z" />
    <glyph glyph-name="guillemotleft" unicode="&#xab;" horiz-adv-x="1165" 
d="M432 1044h195l-353 -471v-12l353 -471h-195l-338 442v70zM881 1044h194l-352 -471v-12l352 -471h-194l-338 442v70z" />
    <glyph glyph-name="registered" unicode="&#xae;" horiz-adv-x="1747" 
d="M571 1188h332q68 0 127 -17t102.5 -52.5t68 -89t24.5 -126.5q0 -46 -14.5 -86.5t-39.5 -73t-59.5 -55.5t-73.5 -35l205 -395h-151l-181 365h-209v-365h-131v930zM100 715q0 107 27.5 206t77.5 185t120.5 156.5t156 121t184.5 78t206 27.5t206 -27.5t185 -78t157 -121
t121.5 -156.5t78 -185t27.5 -206t-27.5 -206t-78 -184.5t-121.5 -156t-157 -120.5t-185 -77.5t-206 -27.5t-206 27.5t-184.5 77.5t-156 120.5t-120.5 156t-77.5 184.5t-27.5 206zM225 715q0 -92 22.5 -176.5t64 -158t100 -134t130 -103.5t155 -66.5t175.5 -23.5
q138 0 256.5 52t206 141.5t137.5 210t50 258.5q0 137 -50 258t-137.5 211t-206 142t-256.5 52q-137 0 -255.5 -52t-205.5 -142t-136.5 -211t-49.5 -258zM702 741h191q94 0 143 43.5t49 120.5q0 78 -49 121t-143 43h-191v-328z" />
    <glyph glyph-name="macron" unicode="&#xaf;" 
d="M156 1350h485v-138h-485v138z" />
    <glyph glyph-name="degree" unicode="&#xb0;" horiz-adv-x="887" 
d="M442 778q-71 0 -132.5 26t-108 71.5t-73 107.5t-26.5 133t26.5 132.5t73 106.5t108 71t132.5 26q72 0 134 -26t108.5 -71t73 -106.5t26.5 -132.5t-26.5 -133t-73 -107.5t-108.5 -71.5t-134 -26zM442 1307q-41 0 -74.5 -14t-57.5 -39.5t-37 -60.5t-13 -77q0 -41 13 -76.5
t37 -61t57.5 -40t74.5 -14.5q42 0 76.5 14.5t58.5 40t37 61t13 76.5q0 42 -13 77t-37 60.5t-58.5 39.5t-76.5 14z" />
    <glyph glyph-name="plusminus" unicode="&#xb1;" horiz-adv-x="1106" 
d="M967 0h-830v162h830v-162zM469 668h-332v161h332v349h166v-349h332v-161h-332v-349h-166v349z" />
    <glyph glyph-name="twosuperior" unicode="&#xb2;" horiz-adv-x="967" 
d="M176 555v154q99 54 185 103.5t149.5 102t100 110.5t36.5 128q0 37 -12 67.5t-34.5 53t-53.5 35t-70 12.5q-42 0 -74 -15t-53.5 -39t-32.5 -55t-10 -63l-151 8q0 68 24 122.5t67 93t103 59t133 20.5q67 0 125.5 -21t101.5 -60t68 -94t25 -122q0 -61 -19.5 -114t-52.5 -98
t-76 -83.5t-90 -69.5t-94.5 -56t-89.5 -44v-2h432v-133h-637z" />
    <glyph glyph-name="threesuperior" unicode="&#xb3;" horiz-adv-x="981" 
d="M283 807q27 -65 79 -103t127 -38q34 0 66 9t56.5 26.5t39.5 43.5t15 60q0 43 -17 71.5t-46 45t-67 23.5t-79 7h-37v115h37q43 0 79.5 8t62 24.5t40 41.5t14.5 59q0 33 -13.5 57.5t-36 40t-51.5 23.5t-60 8q-34 0 -65.5 -9.5t-57.5 -27t-46 -42t-32 -54.5q-32 12 -63 26.5
t-62 26.5q20 53 54 91.5t78 63t95.5 36.5t106.5 12q61 0 116.5 -16.5t96.5 -48t65.5 -76.5t24.5 -103q0 -32 -10.5 -63.5t-30 -57.5t-46 -45.5t-57.5 -27.5v-2q40 -10 70 -31.5t49.5 -49.5t29 -60.5t9.5 -63.5q0 -56 -22.5 -104t-65 -83.5t-104.5 -56t-140 -20.5
q-63 0 -118 17t-98 46.5t-72.5 68t-40.5 81.5z" />
    <glyph glyph-name="acute" unicode="&#xb4;" 
d="M313 1434h217l-127 -293h-131z" />
    <glyph glyph-name="mu" unicode="&#xb5;" horiz-adv-x="1108" 
d="M954 0h-168v117q-52 -71 -128.5 -104t-170.5 -33q-85 0 -149 28q-19 8 -35 17v-342h-158v1339h168v-641q0 -68 16.5 -115t45 -76.5t67 -43t82.5 -13.5q52 0 99.5 17.5t83.5 52.5t57.5 88t21.5 125v606h168v-1022z" />
    <glyph glyph-name="periodcentered" unicode="&#xb7;" 
d="M283 717q0 24 9 45t24.5 37t37 25.5t45.5 9.5t45.5 -9.5t37 -25.5t25 -37t9.5 -45q0 -25 -9.5 -46.5t-25 -37t-37 -24.5t-45.5 -9t-45.5 9t-37 24.5t-24.5 37t-9 46.5z" />
    <glyph glyph-name="cedilla" unicode="&#xb8;" 
d="M238 -131l131 143h127l-76 -92q26 -4 59.5 -13.5t63.5 -28.5t50.5 -49.5t20.5 -76.5q0 -38 -14.5 -70t-44 -55.5t-73.5 -37t-103 -13.5q-42 0 -77 7t-62 15q-32 10 -58 23l33 107q23 -13 63.5 -24t83.5 -11q20 0 38.5 3.5t32.5 11t22 20t8 30.5q0 24 -24 42t-59 31
t-73.5 21t-68.5 13v4z" />
    <glyph glyph-name="onesuperior" unicode="&#xb9;" horiz-adv-x="623" 
d="M385 1434v-879h-143v627h-164v123h31q40 0 66 8t41.5 23.5t21.5 39t6 54.5v4h141z" />
    <glyph glyph-name="ordmasculine" unicode="&#xba;" horiz-adv-x="834" 
d="M725 1106q0 -75 -22 -138.5t-62.5 -109.5t-97.5 -72t-127 -26q-69 0 -126 26t-97 72t-62 109.5t-22 138.5t22 138.5t62 109.5t97 72t126 26q70 0 127 -26t97.5 -72t62.5 -109.5t22 -138.5zM248 1102q0 -44 10.5 -83.5t31.5 -69t52.5 -47t73.5 -17.5t73.5 17.5t52.5 47
t31.5 69t10.5 83.5v8q0 45 -10.5 84.5t-31.5 69t-52.5 46.5t-73.5 17t-73.5 -17t-52.5 -46.5t-31.5 -69t-10.5 -84.5v-8z" />
    <glyph glyph-name="guillemotright" unicode="&#xbb;" horiz-adv-x="1165" 
d="M1071 602v-70l-338 -442h-194l352 471v12l-352 471h194zM623 602v-70l-338 -442h-195l352 471v12l-352 471h195z" />
    <glyph glyph-name="onequarter" unicode="&#xbc;" horiz-adv-x="1405" 
d="M385 1434v-879h-143v627h-164v123h31q40 0 66 8t41.5 23.5t21.5 39t6 54.5v4h141zM958 345v412l-329 -412h329zM958 1v221h-456v152l405 506h191v-535h155v-123h-155v-221h-140z" />
    <glyph glyph-name="onehalf" unicode="&#xbd;" horiz-adv-x="1382" 
d="M385 1434v-879h-143v627h-164v123h31q40 0 66 8t41.5 23.5t21.5 39t6 54.5v4h141zM592 1v154q99 54 185 103.5t149.5 102t100 110.5t36.5 128q0 37 -12 67.5t-34.5 53t-53.5 35t-70 12.5q-42 0 -74 -15t-53.5 -39t-32.5 -55t-10 -63l-151 8q0 68 24 122.5t67 93t103 59
t133 20.5q67 0 125.5 -21t101.5 -60t68 -94t25 -122q0 -61 -19.5 -114t-52.5 -98t-76 -83.5t-90 -69.5t-94.5 -56t-89.5 -44v-2h432v-133h-637z" />
    <glyph glyph-name="threequarters" unicode="&#xbe;" horiz-adv-x="1671" 
d="M283 807q27 -65 79 -103t127 -38q34 0 66 9t56.5 26.5t39.5 43.5t15 60q0 43 -17 71.5t-46 45t-67 23.5t-79 7h-37v115h37q43 0 79.5 8t62 24.5t40 41.5t14.5 59q0 33 -13.5 57.5t-36 40t-51.5 23.5t-60 8q-34 0 -65.5 -9.5t-57.5 -27t-46 -42t-32 -54.5q-32 12 -63 26.5
t-62 26.5q20 53 54 91.5t78 63t95.5 36.5t106.5 12q61 0 116.5 -16.5t96.5 -48t65.5 -76.5t24.5 -103q0 -32 -10.5 -63.5t-30 -57.5t-46 -45.5t-57.5 -27.5v-2q40 -10 70 -31.5t49.5 -49.5t29 -60.5t9.5 -63.5q0 -56 -22.5 -104t-65 -83.5t-104.5 -56t-140 -20.5
q-63 0 -118 17t-98 46.5t-72.5 68t-40.5 81.5zM1224 345v412l-329 -412h329zM1224 1v221h-456v152l405 506h191v-535h155v-123h-155v-221h-140z" />
    <glyph glyph-name="questiondown" unicode="&#xbf;" horiz-adv-x="924" 
d="M589.022 516.029v-20.998q0 -86.9951 -22.499 -149.491q-22.498 -62.4961 -55.9961 -108.993t-72.9951 -82.9951q-39.498 -36.498 -72.9961 -72.9951q-33.498 -36.498 -55.9961 -77.4961q-22.499 -40.9971 -22.499 -97.9941q0 -39.9971 14.499 -75.9951
q14.499 -35.9971 41.9971 -62.4961q27.499 -26.498 66.9961 -41.9971q39.498 -15.499 89.4951 -15.499q41.9971 0 80.4951 9.49902q38.4971 9.5 72.9951 25.499t64.4961 36.9971q29.998 20.999 52.9971 43.998l115.992 -117.993q-33.9971 -38.998 -78.4951 -68.4961
q-44.4971 -29.498 -96.4941 -49.4971q-51.9961 -19.998 -107.993 -29.998q-55.9961 -9.99902 -111.993 -9.99902q-80.9951 0 -152.99 24.498q-71.9961 24.499 -125.992 69.9961q-53.9971 45.4971 -84.9951 110.993t-30.998 146.491q0 63.9961 15.499 111.993
t39.4971 85.4941q23.999 37.498 53.9971 68.4961t58.9961 59.9961q31.998 31.998 58.9971 59.9971q26.998 27.998 46.9971 58.4961t31.498 67.4961q11.499 36.9971 11.499 85.9941v16.999h175.989zM624.021 905.006q0 -23.998 -9 -45.4971q-8.99902 -21.499 -24.498 -36.998
t-36.998 -24.998q-21.498 -9.5 -46.4971 -9.5q-23.998 0 -44.9971 9.5q-20.999 9.49902 -36.498 24.998t-24.998 36.998q-9.5 21.499 -9.5 45.4971t9.5 45.4971q9.49902 21.499 24.998 36.998t36.498 24.498q20.999 9 44.9971 9q24.999 0 46.4971 -9
q21.499 -8.99902 36.998 -24.498t24.498 -36.998q9 -21.499 9 -45.4971z" />
    <glyph glyph-name="Agrave" unicode="&#xc0;" horiz-adv-x="1274" 
d="M913 344h-563l-100 -344h-187l445 1434h254l448 -1434h-194zM393 494h477l-231 782h-16zM696 1553h-129l-127 293h215z" />
    <glyph glyph-name="Aacute" unicode="&#xc1;" horiz-adv-x="1274" 
d="M913 344h-563l-100 -344h-187l445 1434h254l448 -1434h-194zM393 494h477l-231 782h-16zM616 1846h217l-127 -293h-131z" />
    <glyph glyph-name="Acircumflex" unicode="&#xc2;" horiz-adv-x="1274" 
d="M913 344h-563l-100 -344h-187l445 1434h254l448 -1434h-194zM393 494h477l-231 782h-16zM507 1553h-151l196 293h160l197 -293h-152l-125 159z" />
    <glyph glyph-name="Atilde" unicode="&#xc3;" horiz-adv-x="1274" 
d="M913 344h-563l-100 -344h-187l445 1434h254l448 -1434h-194zM393 494h477l-231 782h-16zM614 1631q-29 9 -54 16.5t-40 7.5q-31 0 -42.5 -14t-11.5 -37v-10h-129v22q0 40 8 74.5t26 60t48 40t74 14.5q29 0 62.5 -10t68.5 -21l25 -8q29 -10 55 -17.5t41 -7.5q31 0 42 14
t11 37v11h129v-23q0 -40 -8 -74t-26 -59.5t-48 -40t-73 -14.5q-31 0 -64.5 9t-68.5 21z" />
    <glyph glyph-name="Adieresis" unicode="&#xc4;" horiz-adv-x="1274" 
d="M913 344h-563l-100 -344h-187l445 1434h254l448 -1434h-194zM393 494h477l-231 782h-16zM344 1721q0 24 9.5 45t25 36.5t36.5 25t45 9.5t45.5 -9.5t37 -25t25 -36.5t9.5 -45t-9.5 -45.5t-25 -37t-37 -25t-45.5 -9.5t-45 9.5t-36.5 25t-25 37t-9.5 45.5zM688 1721
q0 24 9.5 45t25 36.5t36.5 25t45 9.5t45.5 -9.5t37 -25t25 -36.5t9.5 -45t-9.5 -45.5t-25 -37t-37 -25t-45.5 -9.5t-45 9.5t-36.5 25t-25 37t-9.5 45.5z" />
    <glyph glyph-name="AE" unicode="&#xc6;" horiz-adv-x="1907" 
d="M905 344h-487l-168 -344h-195l727 1434h983v-152h-680v-471h627v-152h-627v-507h719v-152h-899v344zM489 494h416v788h-28z" />
    <glyph glyph-name="Ccedilla" unicode="&#xc7;" horiz-adv-x="1372" 
d="M514 -131l110 121q-79 13 -148 47q-115 57 -196 156t-124 233t-43 289q0 154 43 288.5t124 234t196.5 157t260.5 57.5q101 0 185.5 -26.5t151.5 -75t116.5 -117t81.5 -152.5l-168 -57q-16 49 -47 98t-77 88t-107 63.5t-136 24.5q-112 0 -194.5 -47.5t-136.5 -126.5
t-80.5 -182.5t-26.5 -214.5v-25q0 -111 26.5 -214t80.5 -181.5t136.5 -126t194.5 -47.5q75 0 136 24.5t107 63.5t77 88t47 99l168 -58q-32 -84 -81.5 -152t-116.5 -116.5t-152 -75.5q-81 -25 -177 -26l-49 -60q26 -4 59.5 -13.5t63.5 -28.5t50.5 -49.5t20.5 -76.5
q0 -38 -14.5 -70t-44 -55.5t-73.5 -37t-103 -13.5q-42 0 -77 7t-62 15q-32 10 -58 23l33 107q23 -13 63.5 -24t83.5 -11q20 0 38.5 3.5t32.5 11t22 20t8 30.5q0 24 -24 42t-59 31t-73.5 21t-68.5 13v4z" />
    <glyph glyph-name="Egrave" unicode="&#xc8;" horiz-adv-x="1196" 
d="M197 1434h858v-152h-682v-471h626v-152h-626v-507h721v-152h-897v1434zM706 1553h-129l-127 293h215z" />
    <glyph glyph-name="Eacute" unicode="&#xc9;" horiz-adv-x="1196" 
d="M197 1434h858v-152h-682v-471h626v-152h-626v-507h721v-152h-897v1434zM600 1846h217l-127 -293h-131z" />
    <glyph glyph-name="Ecircumflex" unicode="&#xca;" horiz-adv-x="1196" 
d="M197 1434h858v-152h-682v-471h626v-152h-626v-507h721v-152h-897v1434zM495 1553h-151l196 293h160l197 -293h-152l-125 159z" />
    <glyph glyph-name="Edieresis" unicode="&#xcb;" horiz-adv-x="1196" 
d="M197 1434h858v-152h-682v-471h626v-152h-626v-507h721v-152h-897v1434zM336 1721q0 24 9.5 45t25 36.5t36.5 25t45 9.5t45.5 -9.5t37 -25t25 -36.5t9.5 -45t-9.5 -45.5t-25 -37t-37 -25t-45.5 -9.5t-45 9.5t-36.5 25t-25 37t-9.5 45.5zM680 1721q0 24 9.5 45t25 36.5
t36.5 25t45 9.5t45.5 -9.5t37 -25t25 -36.5t9.5 -45t-9.5 -45.5t-25 -37t-37 -25t-45.5 -9.5t-45 9.5t-36.5 25t-25 37t-9.5 45.5z" />
    <glyph glyph-name="Igrave" unicode="&#xcc;" horiz-adv-x="569" 
d="M197 1434h176v-1434h-176v1434zM347 1553h-129l-127 293h215z" />
    <glyph glyph-name="Iacute" unicode="&#xcd;" horiz-adv-x="569" 
d="M197 1434h176v-1434h-176v1434zM265 1846h217l-127 -293h-131z" />
    <glyph glyph-name="Icircumflex" unicode="&#xce;" horiz-adv-x="569" 
d="M197 1434h176v-1434h-176v1434zM160 1553h-151l196 293h160l197 -293h-152l-125 159z" />
    <glyph glyph-name="Idieresis" unicode="&#xcf;" horiz-adv-x="569" 
d="M197 1434h176v-1434h-176v1434zM-3 1721q0 24 9.5 45t25 36.5t36.5 25t45 9.5t45.5 -9.5t37 -25t25 -36.5t9.5 -45t-9.5 -45.5t-25 -37t-37 -25t-45.5 -9.5t-45 9.5t-36.5 25t-25 37t-9.5 45.5zM341 1721q0 24 9.5 45t25 36.5t36.5 25t45 9.5t45.5 -9.5t37 -25t25 -36.5
t9.5 -45t-9.5 -45.5t-25 -37t-37 -25t-45.5 -9.5t-45 9.5t-36.5 25t-25 37t-9.5 45.5z" />
    <glyph glyph-name="Ntilde" unicode="&#xd1;" horiz-adv-x="1563" 
d="M369 1225v-1225h-172v1434h241l756 -1225v1225h172v-1434h-242zM762 1631q-29 9 -54 16.5t-40 7.5q-31 0 -42.5 -14t-11.5 -37v-10h-129v22q0 40 8 74.5t26 60t48 40t74 14.5q29 0 62.5 -10t68.5 -21l25 -8q29 -10 55 -17.5t41 -7.5q31 0 42 14t11 37v11h129v-23
q0 -40 -8 -74t-26 -59.5t-48 -40t-73 -14.5q-31 0 -64.5 9t-68.5 21z" />
    <glyph glyph-name="Ograve" unicode="&#xd2;" horiz-adv-x="1479" 
d="M113 715q0 154 43.5 288.5t124.5 234t197 157t261 57.5t261 -57.5t197.5 -157t125 -234t43.5 -288.5q0 -155 -43.5 -289t-125 -233t-197.5 -156t-261 -57t-261 57t-197 156t-124.5 233t-43.5 289zM1180 729q0 111 -25.5 214t-79.5 182t-137.5 126t-198.5 47t-198 -47
t-137 -126t-79.5 -182t-25.5 -214v-27q0 -111 25.5 -214t79.5 -181.5t137 -126t198 -47.5t198.5 47.5t137.5 126t79.5 181.5t25.5 214v27zM821 1553h-129l-127 293h215z" />
    <glyph glyph-name="Oacute" unicode="&#xd3;" horiz-adv-x="1479" 
d="M113 715q0 154 43.5 288.5t124.5 234t197 157t261 57.5t261 -57.5t197.5 -157t125 -234t43.5 -288.5q0 -155 -43.5 -289t-125 -233t-197.5 -156t-261 -57t-261 57t-197 156t-124.5 233t-43.5 289zM1180 729q0 111 -25.5 214t-79.5 182t-137.5 126t-198.5 47t-198 -47
t-137 -126t-79.5 -182t-25.5 -214v-27q0 -111 25.5 -214t79.5 -181.5t137 -126t198 -47.5t198.5 47.5t137.5 126t79.5 181.5t25.5 214v27zM739 1846h217l-127 -293h-131z" />
    <glyph glyph-name="Ocircumflex" unicode="&#xd4;" horiz-adv-x="1479" 
d="M113 715q0 154 43.5 288.5t124.5 234t197 157t261 57.5t261 -57.5t197.5 -157t125 -234t43.5 -288.5q0 -155 -43.5 -289t-125 -233t-197.5 -156t-261 -57t-261 57t-197 156t-124.5 233t-43.5 289zM1180 729q0 111 -25.5 214t-79.5 182t-137.5 126t-198.5 47t-198 -47
t-137 -126t-79.5 -182t-25.5 -214v-27q0 -111 25.5 -214t79.5 -181.5t137 -126t198 -47.5t198.5 47.5t137.5 126t79.5 181.5t25.5 214v27zM614 1553h-151l196 293h160l197 -293h-152l-125 159z" />
    <glyph glyph-name="Otilde" unicode="&#xd5;" horiz-adv-x="1479" 
d="M113 715q0 154 43.5 288.5t124.5 234t197 157t261 57.5t261 -57.5t197.5 -157t125 -234t43.5 -288.5q0 -155 -43.5 -289t-125 -233t-197.5 -156t-261 -57t-261 57t-197 156t-124.5 233t-43.5 289zM1180 729q0 111 -25.5 214t-79.5 182t-137.5 126t-198.5 47t-198 -47
t-137 -126t-79.5 -182t-25.5 -214v-27q0 -111 25.5 -214t79.5 -181.5t137 -126t198 -47.5t198.5 47.5t137.5 126t79.5 181.5t25.5 214v27zM721 1631q-29 9 -54 16.5t-40 7.5q-31 0 -42.5 -14t-11.5 -37v-10h-129v22q0 40 8 74.5t26 60t48 40t74 14.5q29 0 62.5 -10t68.5 -21
l25 -8q29 -10 55 -17.5t41 -7.5q31 0 42 14t11 37v11h129v-23q0 -40 -8 -74t-26 -59.5t-48 -40t-73 -14.5q-31 0 -64.5 9t-68.5 21z" />
    <glyph glyph-name="Odieresis" unicode="&#xd6;" horiz-adv-x="1479" 
d="M113 715q0 154 43.5 288.5t124.5 234t197 157t261 57.5t261 -57.5t197.5 -157t125 -234t43.5 -288.5q0 -155 -43.5 -289t-125 -233t-197.5 -156t-261 -57t-261 57t-197 156t-124.5 233t-43.5 289zM1180 729q0 111 -25.5 214t-79.5 182t-137.5 126t-198.5 47t-198 -47
t-137 -126t-79.5 -182t-25.5 -214v-27q0 -111 25.5 -214t79.5 -181.5t137 -126t198 -47.5t198.5 47.5t137.5 126t79.5 181.5t25.5 214v27zM451 1721q0 24 9.5 45t25 36.5t36.5 25t45 9.5t45.5 -9.5t37 -25t25 -36.5t9.5 -45t-9.5 -45.5t-25 -37t-37 -25t-45.5 -9.5t-45 9.5
t-36.5 25t-25 37t-9.5 45.5zM795 1721q0 24 9.5 45t25 36.5t36.5 25t45 9.5t45.5 -9.5t37 -25t25 -36.5t9.5 -45t-9.5 -45.5t-25 -37t-37 -25t-45.5 -9.5t-45 9.5t-36.5 25t-25 37t-9.5 45.5z" />
    <glyph glyph-name="multiply" unicode="&#xd7;" horiz-adv-x="1106" 
d="M100 410l340 340l-340 337l113 115l340 -340l340 340l111 -115l-338 -337l338 -340l-111 -113l-340 338l-340 -338z" />
    <glyph glyph-name="Oslash" unicode="&#xd8;" horiz-adv-x="1477" 
d="M113 715q0 154 43.5 288.5t124.5 234t197 157t261 57.5t261 -58q82 -40 147 -102l137 160l102 -86l-152 -178q55 -82 88 -185q44 -134 44 -288q0 -155 -43.5 -289t-125 -233t-197.5 -156t-261 -57t-261 57q-81 39 -145 99l-134 -156l-103 86l149 174q-55 83 -89 186
q-43 134 -43 289zM937 1251q-83 47 -198 47t-198 -47t-137 -126t-79.5 -182t-25.5 -214v-27q0 -111 25 -214q15 -59 39 -111l678 791q-45 49 -104 83zM1180 729q0 111 -26 214q-14 58 -37 108l-678 -790q44 -48 102 -81q83 -47 198 -47t198.5 47.5t137.5 126t79.5 181.5
t25.5 214v27z" />
    <glyph glyph-name="Ugrave" unicode="&#xd9;" horiz-adv-x="1423" 
d="M711 133q70 0 134.5 22.5t114 69.5t79.5 119.5t30 173.5v916h172v-940q0 -118 -41 -213t-112 -162t-168 -103t-209 -36q-111 0 -207.5 36t-168 103t-112.5 162t-41 213v940h174v-916q0 -101 29.5 -173.5t78.5 -119.5t113.5 -69.5t133.5 -22.5zM790 1553h-129l-127 293
h215z" />
    <glyph glyph-name="Uacute" unicode="&#xda;" horiz-adv-x="1423" 
d="M711 133q70 0 134.5 22.5t114 69.5t79.5 119.5t30 173.5v916h172v-940q0 -118 -41 -213t-112 -162t-168 -103t-209 -36q-111 0 -207.5 36t-168 103t-112.5 162t-41 213v940h174v-916q0 -101 29.5 -173.5t78.5 -119.5t113.5 -69.5t133.5 -22.5zM686 1846h217l-127 -293
h-131z" />
    <glyph glyph-name="Ucircumflex" unicode="&#xdb;" horiz-adv-x="1423" 
d="M711 133q70 0 134.5 22.5t114 69.5t79.5 119.5t30 173.5v916h172v-940q0 -118 -41 -213t-112 -162t-168 -103t-209 -36q-111 0 -207.5 36t-168 103t-112.5 162t-41 213v940h174v-916q0 -101 29.5 -173.5t78.5 -119.5t113.5 -69.5t133.5 -22.5zM583 1553h-151l196 293h160
l197 -293h-152l-125 159z" />
    <glyph glyph-name="Udieresis" unicode="&#xdc;" horiz-adv-x="1423" 
d="M711 133q70 0 134.5 22.5t114 69.5t79.5 119.5t30 173.5v916h172v-940q0 -118 -41 -213t-112 -162t-168 -103t-209 -36q-111 0 -207.5 36t-168 103t-112.5 162t-41 213v940h174v-916q0 -101 29.5 -173.5t78.5 -119.5t113.5 -69.5t133.5 -22.5zM420 1721q0 24 9.5 45
t25 36.5t36.5 25t45 9.5t45.5 -9.5t37 -25t25 -36.5t9.5 -45t-9.5 -45.5t-25 -37t-37 -25t-45.5 -9.5t-45 9.5t-36.5 25t-25 37t-9.5 45.5zM764 1721q0 24 9.5 45t25 36.5t36.5 25t45 9.5t45.5 -9.5t37 -25t25 -36.5t9.5 -45t-9.5 -45.5t-25 -37t-37 -25t-45.5 -9.5t-45 9.5
t-36.5 25t-25 37t-9.5 45.5z" />
    <glyph glyph-name="Yacute" unicode="&#xdd;" horiz-adv-x="1204" 
d="M252 1434l352 -680h4l351 680h192l-461 -848v-586h-176v586l-463 848h201zM592 1846h217l-127 -293h-131z" />
    <glyph glyph-name="germandbls" unicode="&#xdf;" horiz-adv-x="1102" 
d="M154 1024q0 91 26 169t77.5 135.5t127 90.5t174.5 33q77 0 143.5 -24t116 -67.5t77.5 -104.5t28 -134q0 -48 -13.5 -91t-33.5 -81t-43.5 -71.5t-43.5 -61.5t-33.5 -51t-13.5 -41q0 -27 21.5 -53.5t53 -56t69 -63t69 -75t53 -91.5t21.5 -112q0 -63 -23 -117t-64 -93
t-98.5 -61.5t-127.5 -22.5q-32 0 -66 4.5t-66.5 14t-61.5 23.5t-50 33l80 121q31 -23 70 -39t79 -16q33 0 62.5 9.5t51.5 28t35 47.5t13 68q0 42 -22 79t-55 71.5t-71.5 68t-71.5 67t-55 69.5t-22 76q0 31 14 64t35.5 66.5t46 67.5t46 68.5t35.5 69t14 69.5q0 48 -16 84.5
t-44 61t-65.5 37t-79.5 12.5q-51 0 -93 -17.5t-73 -52.5t-48 -86.5t-17 -118.5v-1030h-168v1024z" />
    <glyph glyph-name="agrave" unicode="&#xe0;" horiz-adv-x="1030" 
d="M735 102q-45 -52 -121.5 -87t-179.5 -35q-76 0 -141 21.5t-113 61.5t-75 97t-27 129q0 60 19.5 109.5t55 86.5t85.5 60.5t112 32.5l361 49v65q0 58 -18 97.5t-48.5 62.5t-72 33t-89.5 10q-86 0 -160.5 -24t-134.5 -56l-63 133q88 50 184.5 72t190.5 22q187 0 283 -84.5
t96 -246.5v-471q0 -51 20 -85.5t64 -54.5l-95 -120q-48 12 -82.5 42.5t-48.5 73.5zM436 455q-42 -6 -76.5 -17t-58.5 -29.5t-37.5 -45.5t-13.5 -66q0 -45 17 -80t46 -59t67.5 -36.5t80.5 -12.5q47 0 92 13t80 37.5t56.5 59.5t21.5 80v197zM581 1141h-129l-127 293h215z" />
    <glyph glyph-name="aacute" unicode="&#xe1;" horiz-adv-x="1030" 
d="M735 102q-45 -52 -121.5 -87t-179.5 -35q-76 0 -141 21.5t-113 61.5t-75 97t-27 129q0 60 19.5 109.5t55 86.5t85.5 60.5t112 32.5l361 49v65q0 58 -18 97.5t-48.5 62.5t-72 33t-89.5 10q-86 0 -160.5 -24t-134.5 -56l-63 133q88 50 184.5 72t190.5 22q187 0 283 -84.5
t96 -246.5v-471q0 -51 20 -85.5t64 -54.5l-95 -120q-48 12 -82.5 42.5t-48.5 73.5zM436 455q-42 -6 -76.5 -17t-58.5 -29.5t-37.5 -45.5t-13.5 -66q0 -45 17 -80t46 -59t67.5 -36.5t80.5 -12.5q47 0 92 13t80 37.5t56.5 59.5t21.5 80v197zM499 1434h217l-127 -293h-131z" />
    <glyph glyph-name="acircumflex" unicode="&#xe2;" horiz-adv-x="1030" 
d="M735 102q-45 -52 -121.5 -87t-179.5 -35q-76 0 -141 21.5t-113 61.5t-75 97t-27 129q0 60 19.5 109.5t55 86.5t85.5 60.5t112 32.5l361 49v65q0 58 -18 97.5t-48.5 62.5t-72 33t-89.5 10q-86 0 -160.5 -24t-134.5 -56l-63 133q88 50 184.5 72t190.5 22q187 0 283 -84.5
t96 -246.5v-471q0 -51 20 -85.5t64 -54.5l-95 -120q-48 12 -82.5 42.5t-48.5 73.5zM436 455q-42 -6 -76.5 -17t-58.5 -29.5t-37.5 -45.5t-13.5 -66q0 -45 17 -80t46 -59t67.5 -36.5t80.5 -12.5q47 0 92 13t80 37.5t56.5 59.5t21.5 80v197zM374 1141h-151l196 293h160
l197 -293h-152l-125 159z" />
    <glyph glyph-name="atilde" unicode="&#xe3;" horiz-adv-x="1030" 
d="M735 102q-45 -52 -121.5 -87t-179.5 -35q-76 0 -141 21.5t-113 61.5t-75 97t-27 129q0 60 19.5 109.5t55 86.5t85.5 60.5t112 32.5l361 49v65q0 58 -18 97.5t-48.5 62.5t-72 33t-89.5 10q-86 0 -160.5 -24t-134.5 -56l-63 133q88 50 184.5 72t190.5 22q187 0 283 -84.5
t96 -246.5v-471q0 -51 20 -85.5t64 -54.5l-95 -120q-48 12 -82.5 42.5t-48.5 73.5zM436 455q-42 -6 -76.5 -17t-58.5 -29.5t-37.5 -45.5t-13.5 -66q0 -45 17 -80t46 -59t67.5 -36.5t80.5 -12.5q47 0 92 13t80 37.5t56.5 59.5t21.5 80v197zM481 1219q-29 9 -54 16.5t-40 7.5
q-31 0 -42.5 -14t-11.5 -37v-10h-129v22q0 40 8 74.5t26 60t48 40t74 14.5q29 0 62.5 -10t68.5 -21l25 -8q29 -10 55 -17.5t41 -7.5q31 0 42 14t11 37v11h129v-23q0 -40 -8 -74t-26 -59.5t-48 -40t-73 -14.5q-31 0 -64.5 9t-68.5 21z" />
    <glyph glyph-name="adieresis" unicode="&#xe4;" horiz-adv-x="1030" 
d="M735 102q-45 -52 -121.5 -87t-179.5 -35q-76 0 -141 21.5t-113 61.5t-75 97t-27 129q0 60 19.5 109.5t55 86.5t85.5 60.5t112 32.5l361 49v65q0 58 -18 97.5t-48.5 62.5t-72 33t-89.5 10q-86 0 -160.5 -24t-134.5 -56l-63 133q88 50 184.5 72t190.5 22q187 0 283 -84.5
t96 -246.5v-471q0 -51 20 -85.5t64 -54.5l-95 -120q-48 12 -82.5 42.5t-48.5 73.5zM436 455q-42 -6 -76.5 -17t-58.5 -29.5t-37.5 -45.5t-13.5 -66q0 -45 17 -80t46 -59t67.5 -36.5t80.5 -12.5q47 0 92 13t80 37.5t56.5 59.5t21.5 80v197zM211 1309q0 24 9.5 45t25 36.5
t36.5 25t45 9.5t45.5 -9.5t37 -25t25 -36.5t9.5 -45t-9.5 -45.5t-25 -37t-37 -25t-45.5 -9.5t-45 9.5t-36.5 25t-25 37t-9.5 45.5zM555 1309q0 24 9.5 45t25 36.5t36.5 25t45 9.5t45.5 -9.5t37 -25t25 -36.5t9.5 -45t-9.5 -45.5t-25 -37t-37 -25t-45.5 -9.5t-45 9.5
t-36.5 25t-25 37t-9.5 45.5z" />
    <glyph glyph-name="ae" unicode="&#xe6;" horiz-adv-x="1688" 
d="M492 895q-47 0 -89 -6.5t-79.5 -17t-71 -24t-62.5 -26.5l-63 127q44 25 91.5 43t96 29.5t96.5 16.5t93 5q48 0 95.5 -7t91 -24t80 -47t60.5 -75q60 72 145 112.5t193 40.5q102 0 183.5 -40t138.5 -111.5t87 -169t30 -211.5v-51h-725q7 -74 31 -135t64.5 -105t96 -68
t125.5 -24q87 0 149.5 26t116.5 74l88 -118q-69 -60 -161 -94.5t-201 -34.5q-124 0 -219 47.5t-158 132.5q-60 -86 -159.5 -133t-219.5 -47q-68 0 -132.5 21.5t-114.5 62.5t-80.5 100.5t-30.5 134.5q0 58 20.5 111.5t62.5 94.5t106.5 66t152.5 25h291v96q0 58 -17.5 97.5
t-47.5 62.5t-70 33t-84 10zM463 117q58 0 105 16.5t82.5 40.5t60 52.5t37.5 52.5q-16 40 -26 84.5t-13 95.5h-244q-100 0 -157.5 -43t-57.5 -121q0 -43 17.5 -76.5t47 -56t68 -34t80.5 -11.5zM1171 897q-65 0 -117 -25.5t-88.5 -67.5t-57 -97t-23.5 -113h542q-2 59 -20 114
t-50.5 97t-79 67t-106.5 25z" />
    <glyph glyph-name="ccedilla" unicode="&#xe7;" horiz-adv-x="1047" 
d="M363 -131l109 119q-54 10 -102 31q-86 40 -148 110.5t-96 167.5t-34 213q0 117 34 214.5t96 168t148.5 110t192.5 39.5q69 0 131 -17t114 -48t92.5 -75.5t66.5 -98.5l-140 -80q-19 36 -44.5 67.5t-58 54.5t-73 36.5t-88.5 13.5q-74 0 -129.5 -30.5t-92.5 -82t-56 -120.5
t-19 -146v-10q0 -77 19 -146t56 -120.5t92.5 -82t129.5 -30.5q48 0 88.5 13.5t73 36.5t58 54.5t44.5 67.5l140 -80q-26 -54 -66.5 -98.5t-92.5 -75.5t-114 -48q-47 -13 -99 -16l-50 -61q26 -4 59.5 -13.5t63.5 -28.5t50.5 -49.5t20.5 -76.5q0 -38 -14.5 -70t-44 -55.5
t-73.5 -37t-103 -13.5q-42 0 -77 7t-62 15q-32 10 -58 23l33 107q23 -13 63.5 -24t83.5 -11q20 0 38.5 3.5t32.5 11t22 20t8 30.5q0 24 -24 42t-59 31t-73.5 21t-68.5 13v4z" />
    <glyph glyph-name="egrave" unicode="&#xe8;" horiz-adv-x="1073" 
d="M268 459q5 -72 29 -133t65.5 -105.5t98 -69t125.5 -24.5q85 0 149.5 28.5t118.5 71.5l86 -121q-69 -55 -159.5 -90.5t-202.5 -35.5q-111 0 -201 39.5t-153.5 110t-97.5 168t-34 212.5q0 117 33.5 214.5t94.5 168t146 110t189 39.5q101 0 182 -39.5t138 -110t87.5 -168
t30.5 -212.5v-53h-725zM549 895q-64 0 -114 -25t-85.5 -67t-56 -96.5t-23.5 -112.5h541q-2 59 -20.5 113.5t-52 96t-81 66.5t-108.5 25zM614 1141h-129l-127 293h215z" />
    <glyph glyph-name="eacute" unicode="&#xe9;" horiz-adv-x="1073" 
d="M268 459q5 -72 29 -133t65.5 -105.5t98 -69t125.5 -24.5q85 0 149.5 28.5t118.5 71.5l86 -121q-69 -55 -159.5 -90.5t-202.5 -35.5q-111 0 -201 39.5t-153.5 110t-97.5 168t-34 212.5q0 117 33.5 214.5t94.5 168t146 110t189 39.5q101 0 182 -39.5t138 -110t87.5 -168
t30.5 -212.5v-53h-725zM549 895q-64 0 -114 -25t-85.5 -67t-56 -96.5t-23.5 -112.5h541q-2 59 -20.5 113.5t-52 96t-81 66.5t-108.5 25zM534 1434h217l-127 -293h-131z" />
    <glyph glyph-name="ecircumflex" unicode="&#xea;" horiz-adv-x="1073" 
d="M268 459q5 -72 29 -133t65.5 -105.5t98 -69t125.5 -24.5q85 0 149.5 28.5t118.5 71.5l86 -121q-69 -55 -159.5 -90.5t-202.5 -35.5q-111 0 -201 39.5t-153.5 110t-97.5 168t-34 212.5q0 117 33.5 214.5t94.5 168t146 110t189 39.5q101 0 182 -39.5t138 -110t87.5 -168
t30.5 -212.5v-53h-725zM549 895q-64 0 -114 -25t-85.5 -67t-56 -96.5t-23.5 -112.5h541q-2 59 -20.5 113.5t-52 96t-81 66.5t-108.5 25zM407 1141h-151l196 293h160l197 -293h-152l-125 159z" />
    <glyph glyph-name="edieresis" unicode="&#xeb;" horiz-adv-x="1073" 
d="M268 459q5 -72 29 -133t65.5 -105.5t98 -69t125.5 -24.5q85 0 149.5 28.5t118.5 71.5l86 -121q-69 -55 -159.5 -90.5t-202.5 -35.5q-111 0 -201 39.5t-153.5 110t-97.5 168t-34 212.5q0 117 33.5 214.5t94.5 168t146 110t189 39.5q101 0 182 -39.5t138 -110t87.5 -168
t30.5 -212.5v-53h-725zM549 895q-64 0 -114 -25t-85.5 -67t-56 -96.5t-23.5 -112.5h541q-2 59 -20.5 113.5t-52 96t-81 66.5t-108.5 25zM244 1309q0 24 9.5 45t25 36.5t36.5 25t45 9.5t45.5 -9.5t37 -25t25 -36.5t9.5 -45t-9.5 -45.5t-25 -37t-37 -25t-45.5 -9.5t-45 9.5
t-36.5 25t-25 37t-9.5 45.5zM588 1309q0 24 9.5 45t25 36.5t36.5 25t45 9.5t45.5 -9.5t37 -25t25 -36.5t9.5 -45t-9.5 -45.5t-25 -37t-37 -25t-45.5 -9.5t-45 9.5t-36.5 25t-25 37t-9.5 45.5z" />
    <glyph glyph-name="igrave" unicode="&#xec;" horiz-adv-x="475" 
d="M322 0h-168v1022h168v-1022zM298 1141h-129l-127 293h215z" />
    <glyph glyph-name="iacute" unicode="&#xed;" horiz-adv-x="475" 
d="M322 0h-168v1022h168v-1022zM218 1434h217l-127 -293h-131z" />
    <glyph glyph-name="icircumflex" unicode="&#xee;" horiz-adv-x="475" 
d="M322 0h-168v1022h168v-1022zM111 1141h-151l196 293h160l197 -293h-152l-125 159z" />
    <glyph glyph-name="idieresis" unicode="&#xef;" horiz-adv-x="475" 
d="M322 0h-168v1022h168v-1022zM-52 1309q0 24 9.5 45t25 36.5t36.5 25t45 9.5t45.5 -9.5t37 -25t25 -36.5t9.5 -45t-9.5 -45.5t-25 -37t-37 -25t-45.5 -9.5t-45 9.5t-36.5 25t-25 37t-9.5 45.5zM292 1309q0 24 9.5 45t25 36.5t36.5 25t45 9.5t45.5 -9.5t37 -25t25 -36.5
t9.5 -45t-9.5 -45.5t-25 -37t-37 -25t-45.5 -9.5t-45 9.5t-36.5 25t-25 37t-9.5 45.5z" />
    <glyph glyph-name="ntilde" unicode="&#xf1;" horiz-adv-x="1108" 
d="M154 1022h168v-117q52 71 128.5 104t170.5 33q85 0 149 -28t107 -76t64.5 -111t21.5 -133v-694h-168v641q0 67 -16.5 114.5t-45 77t-67 43t-82.5 13.5q-48 0 -94.5 -17.5t-84 -52.5t-60.5 -88t-23 -125v-606h-168v1022zM528 1219q-29 9 -54 16.5t-40 7.5q-31 0 -42.5 -14
t-11.5 -37v-10h-129v22q0 40 8 74.5t26 60t48 40t74 14.5q29 0 62.5 -10t68.5 -21l25 -8q29 -10 55 -17.5t41 -7.5q31 0 42 14t11 37v11h129v-23q0 -40 -8 -74t-26 -59.5t-48 -40t-73 -14.5q-31 0 -64.5 9t-68.5 21z" />
    <glyph glyph-name="ograve" unicode="&#xf2;" horiz-adv-x="1126" 
d="M563 1042q106 0 193 -39.5t148.5 -110t95.5 -168t34 -214.5q0 -115 -34 -212.5t-95.5 -168t-148.5 -110t-193 -39.5t-192.5 39.5t-148.5 110t-96 168t-34 212.5q0 117 34 214.5t96 168t148.5 110t192.5 39.5zM563 127q73 0 128.5 30.5t93 82.5t56.5 120.5t19 143.5v12
q0 77 -19 146t-56.5 120.5t-93 82t-128.5 30.5t-128.5 -30.5t-93 -82t-56.5 -120.5t-19 -146v-12q0 -75 19 -143.5t56.5 -120.5t93 -82.5t128.5 -30.5zM624 1141h-129l-127 293h215z" />
    <glyph glyph-name="oacute" unicode="&#xf3;" horiz-adv-x="1126" 
d="M563 1042q106 0 193 -39.5t148.5 -110t95.5 -168t34 -214.5q0 -115 -34 -212.5t-95.5 -168t-148.5 -110t-193 -39.5t-192.5 39.5t-148.5 110t-96 168t-34 212.5q0 117 34 214.5t96 168t148.5 110t192.5 39.5zM563 127q73 0 128.5 30.5t93 82.5t56.5 120.5t19 143.5v12
q0 77 -19 146t-56.5 120.5t-93 82t-128.5 30.5t-128.5 -30.5t-93 -82t-56.5 -120.5t-19 -146v-12q0 -75 19 -143.5t56.5 -120.5t93 -82.5t128.5 -30.5zM542 1434h217l-127 -293h-131z" />
    <glyph glyph-name="ocircumflex" unicode="&#xf4;" horiz-adv-x="1126" 
d="M563 1042q106 0 193 -39.5t148.5 -110t95.5 -168t34 -214.5q0 -115 -34 -212.5t-95.5 -168t-148.5 -110t-193 -39.5t-192.5 39.5t-148.5 110t-96 168t-34 212.5q0 117 34 214.5t96 168t148.5 110t192.5 39.5zM563 127q73 0 128.5 30.5t93 82.5t56.5 120.5t19 143.5v12
q0 77 -19 146t-56.5 120.5t-93 82t-128.5 30.5t-128.5 -30.5t-93 -82t-56.5 -120.5t-19 -146v-12q0 -75 19 -143.5t56.5 -120.5t93 -82.5t128.5 -30.5zM438 1141h-151l196 293h160l197 -293h-152l-125 159z" />
    <glyph glyph-name="otilde" unicode="&#xf5;" horiz-adv-x="1126" 
d="M563 1042q106 0 193 -39.5t148.5 -110t95.5 -168t34 -214.5q0 -115 -34 -212.5t-95.5 -168t-148.5 -110t-193 -39.5t-192.5 39.5t-148.5 110t-96 168t-34 212.5q0 117 34 214.5t96 168t148.5 110t192.5 39.5zM563 127q73 0 128.5 30.5t93 82.5t56.5 120.5t19 143.5v12
q0 77 -19 146t-56.5 120.5t-93 82t-128.5 30.5t-128.5 -30.5t-93 -82t-56.5 -120.5t-19 -146v-12q0 -75 19 -143.5t56.5 -120.5t93 -82.5t128.5 -30.5zM545 1219q-29 9 -54 16.5t-40 7.5q-31 0 -42.5 -14t-11.5 -37v-10h-129v22q0 40 8 74.5t26 60t48 40t74 14.5
q29 0 62.5 -10t68.5 -21l25 -8q29 -10 55 -17.5t41 -7.5q31 0 42 14t11 37v11h129v-23q0 -40 -8 -74t-26 -59.5t-48 -40t-73 -14.5q-31 0 -64.5 9t-68.5 21z" />
    <glyph glyph-name="odieresis" unicode="&#xf6;" horiz-adv-x="1126" 
d="M563 1042q106 0 193 -39.5t148.5 -110t95.5 -168t34 -214.5q0 -115 -34 -212.5t-95.5 -168t-148.5 -110t-193 -39.5t-192.5 39.5t-148.5 110t-96 168t-34 212.5q0 117 34 214.5t96 168t148.5 110t192.5 39.5zM563 127q73 0 128.5 30.5t93 82.5t56.5 120.5t19 143.5v12
q0 77 -19 146t-56.5 120.5t-93 82t-128.5 30.5t-128.5 -30.5t-93 -82t-56.5 -120.5t-19 -146v-12q0 -75 19 -143.5t56.5 -120.5t93 -82.5t128.5 -30.5zM275 1309q0 24 9.5 45t25 36.5t36.5 25t45 9.5t45.5 -9.5t37 -25t25 -36.5t9.5 -45t-9.5 -45.5t-25 -37t-37 -25
t-45.5 -9.5t-45 9.5t-36.5 25t-25 37t-9.5 45.5zM619 1309q0 24 9.5 45t25 36.5t36.5 25t45 9.5t45.5 -9.5t37 -25t25 -36.5t9.5 -45t-9.5 -45.5t-25 -37t-37 -25t-45.5 -9.5t-45 9.5t-36.5 25t-25 37t-9.5 45.5z" />
    <glyph glyph-name="divide" unicode="&#xf7;" horiz-adv-x="1106" 
d="M432 387q0 24 9 45.5t24.5 37t37 25t46.5 9.5q24 0 45 -9.5t37 -25t25.5 -37t9.5 -45.5t-9.5 -45.5t-25.5 -37.5t-37 -25t-45 -9q-25 0 -46.5 9t-37 25t-24.5 37.5t-9 45.5zM432 1110q0 24 9 45.5t24.5 37t37 25t46.5 9.5q24 0 45 -9.5t37 -25t25.5 -37t9.5 -45.5
q0 -25 -9.5 -46.5t-25.5 -37t-37 -24.5t-45 -9q-25 0 -46.5 9t-37 24.5t-24.5 37t-9 46.5zM137 829h830v-161h-830v161z" />
    <glyph glyph-name="oslash" unicode="&#xf8;" horiz-adv-x="1130" 
d="M565 1042q106 0 193 -40q64 -29 114 -75l109 117l88 -81l-120 -129q32 -50 53 -110q34 -97 34 -214q0 -115 -34 -212.5t-95.5 -168t-148.5 -110t-193 -39.5t-193 39q-62 29 -112 74l-108 -116l-89 82l118 127q-32 50 -53 111q-34 98 -34 213q0 117 34 214.5t96 168
t148.5 110t192.5 39.5zM693 864q-55 31 -128 31t-128.5 -30.5t-93 -82t-56.5 -120.5t-19 -146v-12q0 -75 19 -144q6 -23 15 -45l461 495q-30 33 -70 54zM565 127q73 0 128.5 30.5t93 82.5t56.5 120.5t19 143.5v12q0 77 -19 146q-6 22 -14 42l-461 -495q30 -31 68 -52
q56 -30 129 -30z" />
    <glyph glyph-name="ugrave" unicode="&#xf9;" horiz-adv-x="1108" 
d="M954 0h-168v117q-52 -71 -128.5 -104t-170.5 -33q-85 0 -149 28t-107 76t-64.5 111t-21.5 133v694h168v-641q0 -68 16.5 -115t45 -76.5t67 -43t82.5 -13.5q52 0 99.5 17.5t83.5 52.5t57.5 88t21.5 125v606h168v-1022zM620 1141h-129l-127 293h215z" />
    <glyph glyph-name="uacute" unicode="&#xfa;" horiz-adv-x="1108" 
d="M954 0h-168v117q-52 -71 -128.5 -104t-170.5 -33q-85 0 -149 28t-107 76t-64.5 111t-21.5 133v694h168v-641q0 -68 16.5 -115t45 -76.5t67 -43t82.5 -13.5q52 0 99.5 17.5t83.5 52.5t57.5 88t21.5 125v606h168v-1022zM540 1434h217l-127 -293h-131z" />
    <glyph glyph-name="ucircumflex" unicode="&#xfb;" horiz-adv-x="1108" 
d="M954 0h-168v117q-52 -71 -128.5 -104t-170.5 -33q-85 0 -149 28t-107 76t-64.5 111t-21.5 133v694h168v-641q0 -68 16.5 -115t45 -76.5t67 -43t82.5 -13.5q52 0 99.5 17.5t83.5 52.5t57.5 88t21.5 125v606h168v-1022zM413 1141h-151l196 293h160l197 -293h-152l-125 159z
" />
    <glyph glyph-name="udieresis" unicode="&#xfc;" horiz-adv-x="1108" 
d="M954 0h-168v117q-52 -71 -128.5 -104t-170.5 -33q-85 0 -149 28t-107 76t-64.5 111t-21.5 133v694h168v-641q0 -68 16.5 -115t45 -76.5t67 -43t82.5 -13.5q52 0 99.5 17.5t83.5 52.5t57.5 88t21.5 125v606h168v-1022zM250 1309q0 24 9.5 45t25 36.5t36.5 25t45 9.5
t45.5 -9.5t37 -25t25 -36.5t9.5 -45t-9.5 -45.5t-25 -37t-37 -25t-45.5 -9.5t-45 9.5t-36.5 25t-25 37t-9.5 45.5zM594 1309q0 24 9.5 45t25 36.5t36.5 25t45 9.5t45.5 -9.5t37 -25t25 -36.5t9.5 -45t-9.5 -45.5t-25 -37t-37 -25t-45.5 -9.5t-45 9.5t-36.5 25t-25 37
t-9.5 45.5z" />
    <glyph glyph-name="yacute" unicode="&#xfd;" horiz-adv-x="956" 
d="M41 1022h190l252 -844l240 844h188l-372 -1176q-17 -54 -44 -88.5t-61.5 -55t-76.5 -28.5t-89 -8q-42 0 -87 4.5t-95 12.5l25 147q20 -4 43 -7q19 -3 43 -5t49 -2q55 0 85.5 24t43.5 78l10 47zM456 1434h217l-127 -293h-131z" />
    <glyph glyph-name="ydieresis" unicode="&#xff;" horiz-adv-x="956" 
d="M41 1022h190l252 -844l240 844h188l-372 -1176q-17 -54 -44 -88.5t-61.5 -55t-76.5 -28.5t-89 -8q-42 0 -87 4.5t-95 12.5l25 147q20 -4 43 -7q19 -3 43 -5t49 -2q55 0 85.5 24t43.5 78l10 47zM193 1309q0 24 9.5 45t25 36.5t36.5 25t45 9.5t45.5 -9.5t37 -25t25 -36.5
t9.5 -45t-9.5 -45.5t-25 -37t-37 -25t-45.5 -9.5t-45 9.5t-36.5 25t-25 37t-9.5 45.5zM537 1309q0 24 9.5 45t25 36.5t36.5 25t45 9.5t45.5 -9.5t37 -25t25 -36.5t9.5 -45t-9.5 -45.5t-25 -37t-37 -25t-45.5 -9.5t-45 9.5t-36.5 25t-25 37t-9.5 45.5z" />
    <glyph glyph-name="dotlessi" unicode="&#x131;" horiz-adv-x="475" 
d="M322 0h-168v1022h168v-1022z" />
    <glyph glyph-name="OE" unicode="&#x152;" horiz-adv-x="2154" 
d="M113 717q0 154 42 288t121 233.5t193.5 156.5t259.5 57q76 0 140.5 -17.5t117.5 -48.5t94.5 -73t73.5 -90v211h858v-152h-682v-471h627v-152h-627v-507h721v-152h-897v211q-32 -48 -73.5 -90.5t-94.5 -73.5t-117.5 -49t-140.5 -18q-145 0 -259.5 57t-193.5 156.5
t-121 234t-42 289.5zM1157 731q0 111 -23 213.5t-73 181t-130.5 125.5t-195.5 47q-114 0 -196.5 -47.5t-136 -126.5t-78.5 -182.5t-25 -214.5v-25q0 -110 25 -213t78.5 -182.5t136 -127.5t196.5 -48q115 0 195.5 47.5t130.5 126.5t73 182t23 213v31z" />
    <glyph glyph-name="oe" unicode="&#x153;" horiz-adv-x="1741" 
d="M936 459q6 -74 30 -135t64.5 -105t96 -68t124.5 -24q86 0 150.5 27.5t118.5 74.5l88 -123q-68 -60 -159 -93t-204 -33q-112 0 -201.5 39t-152.5 110q-57 -71 -138 -110t-190 -39q-106 0 -192.5 39.5t-148.5 110t-96 168t-34 212.5q0 117 34 214.5t96 168t148.5 110
t192.5 39.5q107 0 188 -38t138 -109q60 71 144 109t190 38q100 0 181 -39.5t138 -110t88 -168t31 -212.5v-53h-725zM760 510q0 140 47 252q-37 60 -99.5 96.5t-144.5 36.5q-73 0 -128.5 -30.5t-93 -82t-56.5 -120.5t-19 -146v-12q0 -75 19 -143.5t56.5 -120.5t93 -82.5
t128.5 -30.5q84 0 146.5 36.5t97.5 98.5q-47 109 -47 248zM1223 897q-65 0 -116 -25.5t-88 -67.5t-57.5 -97t-23.5 -113h541q-2 59 -20 114t-50.5 97t-79 67t-106.5 25z" />
    <glyph glyph-name="Wcircumflex" unicode="&#x174;" horiz-adv-x="1843" 
d="M1321 254h10l244 1180h180l-319 -1434h-209l-305 1171l-304 -1171h-210l-318 1434h178l248 -1180h12l312 1180h170zM796 1553h-151l196 293h160l197 -293h-152l-125 159z" />
    <glyph glyph-name="wcircumflex" unicode="&#x175;" horiz-adv-x="1464" 
d="M1038 199l185 823h178l-250 -1022h-215l-207 819l-211 -819h-207l-248 1022h181l178 -823l215 823h190zM604 1141h-151l196 293h160l197 -293h-152l-125 159z" />
    <glyph glyph-name="Ycircumflex" unicode="&#x176;" horiz-adv-x="1204" 
d="M252 1434l352 -680h4l351 680h192l-461 -848v-586h-176v586l-463 848h201zM477 1553h-151l196 293h160l197 -293h-152l-125 159z" />
    <glyph glyph-name="ycircumflex" unicode="&#x177;" horiz-adv-x="956" 
d="M41 1022h190l252 -844l240 844h188l-372 -1176q-17 -54 -44 -88.5t-61.5 -55t-76.5 -28.5t-89 -8q-42 0 -87 4.5t-95 12.5l25 147q20 -4 43 -7q19 -3 43 -5t49 -2q55 0 85.5 24t43.5 78l10 47zM352 1141h-151l196 293h160l197 -293h-152l-125 159z" />
    <glyph glyph-name="Ydieresis" unicode="&#x178;" horiz-adv-x="1204" 
d="M252 1434l352 -680h4l351 680h192l-461 -848v-586h-176v586l-463 848h201zM318 1721q0 24 9.5 45t25 36.5t36.5 25t45 9.5t45.5 -9.5t37 -25t25 -36.5t9.5 -45t-9.5 -45.5t-25 -37t-37 -25t-45.5 -9.5t-45 9.5t-36.5 25t-25 37t-9.5 45.5zM662 1721q0 24 9.5 45t25 36.5
t36.5 25t45 9.5t45.5 -9.5t37 -25t25 -36.5t9.5 -45t-9.5 -45.5t-25 -37t-37 -25t-45.5 -9.5t-45 9.5t-36.5 25t-25 37t-9.5 45.5z" />
    <glyph glyph-name="apostrophe" unicode="&#x2bc;" horiz-adv-x="557" 
d="M270 1452q28 0 53.5 -11t44 -30.5t29.5 -47.5t11 -61q0 -36 -13 -74t-40 -72t-68 -62t-97 -43l-22 -7l-21 68l13 4q46 16 81 45t48 64h-21q-24 0 -44.5 8.5t-36 23.5t-24.5 35.5t-9 44.5t9 45t24.5 36.5t37 24.5t45.5 9z" />
    <glyph glyph-name="circumflex" unicode="&#x2c6;" 
d="M274 1141h-151l196 293h160l197 -293h-152l-125 159z" />
    <glyph glyph-name="caron" unicode="&#x2c7;" 
d="M399 1274l125 160h152l-197 -293h-160l-196 293h151z" />
    <glyph glyph-name="uni02C9" unicode="&#x2c9;" 
d="M156 1350h485v-138h-485v138z" />
    <glyph glyph-name="breve" unicode="&#x2d8;" 
d="M399 1270q30 0 49 9t30.5 24t15.5 35t4 42v31h129v-65q0 -93 -60.5 -147t-167.5 -54q-53 0 -95 14t-71.5 40.5t-45 63.5t-15.5 83v65h129v-31q0 -22 4 -42t15 -35t30 -24t49 -9z" />
    <glyph glyph-name="dotaccent" unicode="&#x2d9;" 
d="M283 1309q0 24 9.5 45t25 36.5t36.5 25t45 9.5t45.5 -9.5t37 -25t25 -36.5t9.5 -45t-9.5 -45.5t-25 -37t-37 -25t-45.5 -9.5t-45 9.5t-36.5 25t-25 37t-9.5 45.5z" />
    <glyph glyph-name="ring" unicode="&#x2da;" 
d="M496 1348q0 43 -27.5 70.5t-69.5 27.5q-43 0 -70.5 -27.5t-27.5 -70.5q0 -21 7.5 -39.5t20.5 -33t31 -22.5t39 -8t39 8t30.5 22.5t20 33t7.5 39.5zM184 1348q0 45 16.5 84t46 67.5t68.5 45t84 16.5t84.5 -16.5t68.5 -45t45.5 -67.5t16.5 -84t-16.5 -84.5t-45.5 -68.5
t-68.5 -45.5t-84.5 -16.5t-84 16.5t-68.5 45.5t-46 68.5t-16.5 84.5z" />
    <glyph glyph-name="ogonek" unicode="&#x2db;" 
d="M473 6q-5 -5 -25.5 -26t-42.5 -49t-39.5 -59t-17.5 -58q0 -29 20.5 -49.5t73.5 -20.5q32 0 65 7.5t58 15.5l-4 -109q-16 -9 -36 -15.5t-41 -11t-41 -6.5t-37 -2q-46 0 -83.5 12t-64 33.5t-41 51.5t-14.5 65q0 44 20.5 84.5t54.5 76t77 65.5t87 52l31 -22v-35z" />
    <glyph glyph-name="tilde" unicode="&#x2dc;" 
d="M381 1219q-29 9 -54 16.5t-40 7.5q-31 0 -42.5 -14t-11.5 -37v-10h-129v22q0 40 8 74.5t26 60t48 40t74 14.5q29 0 62.5 -10t68.5 -21l25 -8q29 -10 55 -17.5t41 -7.5q31 0 42 14t11 37v11h129v-23q0 -40 -8 -74t-26 -59.5t-48 -40t-73 -14.5q-31 0 -64.5 9t-68.5 21z
" />
    <glyph glyph-name="hungarumlaut" unicode="&#x2dd;" 
d="M158 1434h217l-127 -293h-131zM465 1434h217l-127 -293h-131z" />
    <glyph glyph-name="pi" unicode="&#x3c0;" horiz-adv-x="1346" 
d="M981 252q0 -25 3.5 -47t17 -39t39.5 -27t71 -10q12 0 28.5 1t34.5 2.5t35 4t29 4.5l18 -147q-29 -4 -60 -7q-26 -3 -58 -5t-64 -2q-61 0 -109.5 12.5t-82.5 40.5t-52 72.5t-18 109.5v657h-397v-872h-164v872h-193v150h1203v-150h-281v-620z" />
    <glyph glyph-name="Wgrave" unicode="&#x1e80;" horiz-adv-x="1843" 
d="M1321 254h10l244 1180h180l-319 -1434h-209l-305 1171l-304 -1171h-210l-318 1434h178l248 -1180h12l312 1180h170zM991 1553h-129l-127 293h215z" />
    <glyph glyph-name="wgrave" unicode="&#x1e81;" horiz-adv-x="1464" 
d="M1038 199l185 823h178l-250 -1022h-215l-207 819l-211 -819h-207l-248 1022h181l178 -823l215 823h190zM784 1141h-129l-127 293h215z" />
    <glyph glyph-name="Wacute" unicode="&#x1e82;" horiz-adv-x="1843" 
d="M1321 254h10l244 1180h180l-319 -1434h-209l-305 1171l-304 -1171h-210l-318 1434h178l248 -1180h12l312 1180h170zM936 1846h217l-127 -293h-131z" />
    <glyph glyph-name="wacute" unicode="&#x1e83;" horiz-adv-x="1464" 
d="M1038 199l185 823h178l-250 -1022h-215l-207 819l-211 -819h-207l-248 1022h181l178 -823l215 823h190zM714 1434h217l-127 -293h-131z" />
    <glyph glyph-name="Wdieresis" unicode="&#x1e84;" horiz-adv-x="1843" 
d="M1321 254h10l244 1180h180l-319 -1434h-209l-305 1171l-304 -1171h-210l-318 1434h178l248 -1180h12l312 1180h170zM633 1721q0 24 9.5 45t25 36.5t36.5 25t45 9.5t45.5 -9.5t37 -25t25 -36.5t9.5 -45t-9.5 -45.5t-25 -37t-37 -25t-45.5 -9.5t-45 9.5t-36.5 25t-25 37
t-9.5 45.5zM977 1721q0 24 9.5 45t25 36.5t36.5 25t45 9.5t45.5 -9.5t37 -25t25 -36.5t9.5 -45t-9.5 -45.5t-25 -37t-37 -25t-45.5 -9.5t-45 9.5t-36.5 25t-25 37t-9.5 45.5z" />
    <glyph glyph-name="wdieresis" unicode="&#x1e85;" horiz-adv-x="1464" 
d="M1038 199l185 823h178l-250 -1022h-215l-207 819l-211 -819h-207l-248 1022h181l178 -823l215 823h190zM441 1309q0 24 9.5 45t25 36.5t36.5 25t45 9.5t45.5 -9.5t37 -25t25 -36.5t9.5 -45t-9.5 -45.5t-25 -37t-37 -25t-45.5 -9.5t-45 9.5t-36.5 25t-25 37t-9.5 45.5z
M785 1309q0 24 9.5 45t25 36.5t36.5 25t45 9.5t45.5 -9.5t37 -25t25 -36.5t9.5 -45t-9.5 -45.5t-25 -37t-37 -25t-45.5 -9.5t-45 9.5t-36.5 25t-25 37t-9.5 45.5z" />
    <glyph glyph-name="Ygrave" unicode="&#x1ef2;" horiz-adv-x="1204" 
d="M252 1434l352 -680h4l351 680h192l-461 -848v-586h-176v586l-463 848h201zM684 1553h-129l-127 293h215z" />
    <glyph glyph-name="ygrave" unicode="&#x1ef3;" horiz-adv-x="956" 
d="M41 1022h190l252 -844l240 844h188l-372 -1176q-17 -54 -44 -88.5t-61.5 -55t-76.5 -28.5t-89 -8q-42 0 -87 4.5t-95 12.5l25 147q20 -4 43 -7q19 -3 43 -5t49 -2q55 0 85.5 24t43.5 78l10 47zM543 1141h-129l-127 293h215z" />
    <glyph glyph-name="endash" unicode="&#x2013;" horiz-adv-x="1024" 
d="M61 659h902v-147h-902v147z" />
    <glyph glyph-name="emdash" unicode="&#x2014;" horiz-adv-x="2048" 
d="M61 659h1926v-147h-1926v147z" />
    <glyph glyph-name="quoteleft" unicode="&#x2018;" horiz-adv-x="557" 
d="M287 1044q-28 0 -53.5 11t-44 30.5t-29.5 47.5t-11 61q0 36 13 74t40 72t68 62t97 43l22 7l21 -68l-13 -4q-46 -16 -81 -45t-48 -64h21q24 0 44.5 -8.5t36 -23.5t24.5 -35.5t9 -44.5t-9 -45t-24.5 -36.5t-37 -24.5t-45.5 -9z" />
    <glyph glyph-name="quoteright" unicode="&#x2019;" horiz-adv-x="557" 
d="M270 1452q28 0 53.5 -11t44 -30.5t29.5 -47.5t11 -61q0 -36 -13 -74t-40 -72t-68 -62t-97 -43l-22 -7l-21 68l13 4q46 16 81 45t48 64h-21q-24 0 -44.5 8.5t-36 23.5t-24.5 35.5t-9 44.5t9 45t24.5 36.5t37 24.5t45.5 9z" />
    <glyph glyph-name="quotesinglbase" unicode="&#x201a;" horiz-adv-x="561" 
d="M272 213q28 0 53.5 -11t44 -30.5t29.5 -47.5t11 -61q0 -36 -13 -74t-40 -72t-68 -62t-97 -43l-22 -7l-21 68l13 4q46 16 81 45t48 64h-21q-24 0 -44.5 8.5t-36 23.5t-24.5 35.5t-9 44.5t9 45t24.5 36.5t37 24.5t45.5 9z" />
    <glyph glyph-name="quotedblleft" unicode="&#x201c;" horiz-adv-x="924" 
d="M654 1044q-28 0 -53.5 11t-44 30.5t-29.5 47.5t-11 61q0 36 13 74t40 72t68 62t97 43l22 7l21 -68l-13 -4q-46 -16 -81 -45t-48 -64h21q24 0 44.5 -8.5t36 -23.5t24.5 -35.5t9 -44.5t-9 -45t-24.5 -36.5t-37 -24.5t-45.5 -9zM287 1044q-28 0 -53.5 11t-44 30.5
t-29.5 47.5t-11 61q0 36 13 74t40 72t68 62t97 43l22 7l21 -68l-13 -4q-46 -16 -81 -45t-48 -64h21q24 0 44.5 -8.5t36 -23.5t24.5 -35.5t9 -44.5t-9 -45t-24.5 -36.5t-37 -24.5t-45.5 -9z" />
    <glyph glyph-name="quotedblright" unicode="&#x201d;" horiz-adv-x="924" 
d="M637 1454q28 0 53.5 -11t44 -30.5t29.5 -47.5t11 -61q0 -36 -13 -74t-40 -72t-68 -62t-97 -43l-22 -7l-21 68l13 4q46 16 81 45t48 64h-21q-24 0 -44.5 8.5t-36 23.5t-24.5 35.5t-9 44.5t9 45t24.5 36.5t37 24.5t45.5 9zM270 1454q28 0 53.5 -11t44 -30.5t29.5 -47.5
t11 -61q0 -36 -13 -74t-40 -72t-68 -62t-97 -43l-22 -7l-21 68l13 4q46 16 81 45t48 64h-21q-24 0 -44.5 8.5t-36 23.5t-24.5 35.5t-9 44.5t9 45t24.5 36.5t37 24.5t45.5 9z" />
    <glyph glyph-name="bullet" unicode="&#x2022;" horiz-adv-x="797" 
d="M164 733q0 48 18.5 91t50 75.5t74 51t90.5 18.5t91 -18.5t75.5 -51t51 -75.5t18.5 -91t-18.5 -90.5t-51 -74t-75.5 -50t-91 -18.5t-90.5 18.5t-74 50t-50 74t-18.5 90.5z" />
    <glyph glyph-name="ellipsis" unicode="&#x2026;" horiz-adv-x="1786" 
d="M152 96q0 24 9 45.5t24.5 37t37 25t45.5 9.5t45.5 -9.5t37 -25t25 -37t9.5 -45.5t-9.5 -45.5t-25 -37t-37 -24.5t-45.5 -9t-45.5 9t-37 24.5t-24.5 37t-9 45.5zM776 96q0 24 9 45.5t24.5 37t37 25t46.5 9.5q24 0 45 -9.5t37 -25t25.5 -37t9.5 -45.5t-9.5 -45.5t-25.5 -37
t-37 -24.5t-45 -9q-25 0 -46.5 9t-37 24.5t-24.5 37t-9 45.5zM1401 96q0 24 9 45.5t24.5 37t37 25t46.5 9.5q24 0 45 -9.5t36.5 -25t25 -37t9.5 -45.5t-9.5 -45.5t-25 -37t-36.5 -24.5t-45 -9q-25 0 -46.5 9t-37 24.5t-24.5 37t-9 45.5z" />
    <glyph glyph-name="less" unicode="&#x2039;" horiz-adv-x="717" 
d="M432 1044h195l-353 -471v-12l353 -471h-195l-338 442v70z" />
    <glyph glyph-name="greater" unicode="&#x203a;" horiz-adv-x="717" 
d="M623 602v-70l-340 -442h-193l352 471v12l-352 471h193z" />
    <glyph glyph-name="zerosuperior" unicode="&#x2070;" horiz-adv-x="1028" 
d="M514 666q39 0 69 14.5t51 39t35 56.5t22 67.5t11 72.5t3 71v21q0 34 -3 71t-11 72.5t-22 67.5t-35 56.5t-51 39t-69 14.5q-59 0 -96 -31t-58 -78.5t-28.5 -104t-7.5 -107.5v-21q0 -51 7.5 -107.5t28.5 -104t58 -78.5t96 -31zM514 1452q93 0 157.5 -39t105 -102.5
t59 -145.5t18.5 -168t-18.5 -167.5t-59 -145.5t-105 -102.5t-157.5 -38.5t-158 38.5t-105.5 102.5t-58.5 145.5t-18 167.5t18 168t58.5 145.5t105.5 102.5t158 39z" />
    <glyph glyph-name="foursuperior" unicode="&#x2074;" horiz-adv-x="1055" 
d="M608 899v412l-329 -412h329zM608 555v221h-456v152l405 506h191v-535h155v-123h-155v-221h-140z" />
    <glyph glyph-name="fivesuperior" unicode="&#x2075;" horiz-adv-x="979" 
d="M184 999l62 435h534v-123h-422l-26 -203q87 66 188 66q66 0 122 -23.5t96.5 -65t63.5 -99t23 -124.5q0 -71 -25 -129.5t-70 -100.5t-108 -65.5t-139 -23.5q-57 0 -110 14t-96.5 43t-74.5 72t-46 102l145 23q17 -57 65 -94t119 -37q44 0 79 14.5t59.5 40.5t37.5 61.5
t13 77.5t-13 77t-37 60.5t-58.5 39.5t-78.5 14q-46 0 -89.5 -19t-78.5 -59z" />
    <glyph glyph-name="sixsuperior" unicode="&#x2076;" horiz-adv-x="975" 
d="M676 840q0 40 -14 73.5t-38 57.5t-56.5 37.5t-69.5 13.5q-38 0 -70.5 -13.5t-56.5 -37.5t-38 -57.5t-14 -73.5t14 -73.5t38 -57.5t56.5 -37t70.5 -13q37 0 69.5 13t56.5 37t38 57.5t14 73.5zM498 543q-86 0 -150 33t-106.5 90.5t-64 136t-21.5 170.5q0 87 20 172.5
t64 153.5t114 110.5t170 42.5q42 0 83 -9.5t78 -29t68.5 -49.5t53.5 -72l-129 -45q-29 42 -69.5 65t-88.5 23q-46 0 -84.5 -22.5t-67 -63.5t-46.5 -100.5t-23 -132.5q42 60 102 91.5t129 31.5q62 0 115.5 -23t92.5 -63t61 -93t22 -114q0 -66 -24 -121.5t-66.5 -96t-102 -63
t-130.5 -22.5z" />
    <glyph glyph-name="sevensuperior" unicode="&#x2077;" horiz-adv-x="932" 
d="M637 1303h-483v131h624v-140l-325 -739h-168z" />
    <glyph glyph-name="eightsuperior" unicode="&#x2078;" horiz-adv-x="979" 
d="M489 1452q62 0 118.5 -16.5t101.5 -48t71.5 -77.5t26.5 -106q0 -59 -35 -116.5t-110 -77.5q65 -17 114 -75t49 -128q0 -68 -27.5 -117t-74.5 -82t-107.5 -49t-126.5 -16q-65 0 -125.5 16t-107.5 49t-74.5 82t-27.5 117q0 70 48 128t115 75q-75 20 -110 77.5t-35 116.5
q0 60 26.5 106t71.5 77.5t101.5 48t117.5 16.5zM489 659q72 0 126.5 36t54.5 114t-54.5 111.5t-126.5 33.5q-71 0 -125.5 -33.5t-54.5 -111.5t54.5 -114t125.5 -36zM489 1065q66 0 117 30.5t51 102.5q0 70 -51 102.5t-117 32.5q-65 0 -116 -32.5t-51 -102.5q0 -72 51 -102.5
t116 -30.5z" />
    <glyph glyph-name="ninesuperior" unicode="&#x2079;" horiz-adv-x="975" 
d="M301 1155q0 -41 13.5 -74.5t37.5 -57.5t56.5 -37t70.5 -13t70.5 13t56.5 37t37.5 57.5t13.5 74.5q0 40 -13.5 73t-37.5 57t-56.5 37t-70.5 13t-70.5 -13t-56.5 -37t-37.5 -57t-13.5 -73zM479 1452q85 0 149.5 -33t107 -90.5t64 -136.5t21.5 -170q0 -87 -20 -172.5
t-64 -153.5t-114 -110.5t-170 -42.5q-42 0 -83 9.5t-78 29t-68.5 49.5t-53.5 71l129 46q29 -42 69.5 -65.5t88.5 -23.5q46 0 84.5 22.5t67 64t46.5 100.5t23 133q-42 -60 -102 -91.5t-130 -31.5q-62 0 -115 23t-92 62.5t-61 93t-22 114.5q0 66 23.5 121.5t66.5 96t102.5 63
t130.5 22.5z" />
    <glyph glyph-name="Euro" unicode="&#x20ac;" horiz-adv-x="1323" 
d="M104 625h141q-3 45 -3 94q0 58 4 112h-142v148h162q6 30 14 58q38 138 110.5 230.5t177 139.5t237.5 47q77 0 140.5 -18t115.5 -50.5t93 -77.5t73 -100l-146 -78q-40 78 -111 124t-173 46q-76 0 -133 -22t-97.5 -61.5t-67 -93.5t-42.5 -119q-3 -12 -6 -25h428v-148h-446
q-3 -55 -3 -112q0 -48 2 -94h447v-148h-431q15 -92 51 -165q40 -81 112 -130t186 -49q102 0 173 46.5t111 123.5l146 -78q-32 -54 -73 -99.5t-93 -77.5t-115.5 -50t-140.5 -18q-133 0 -237.5 47.5t-177 141t-110.5 231.5q-10 37 -18 77h-158v148z" />
    <glyph glyph-name="trademark" unicode="&#x2122;" horiz-adv-x="1825" 
d="M139 1434h619v-138h-242v-577h-147v577h-230v138zM1276 938l-225 291v-510h-148v715h168l211 -285l209 285h164v-715h-148v510l-225 -291h-6z" />
    <glyph glyph-name="onethird" unicode="&#x2153;" horiz-adv-x="1360" 
d="M385 1434v-879h-143v627h-164v123h31q40 0 66 8t41.5 23.5t21.5 39t6 54.5v4h141zM662 245q27 -65 79 -103t127 -38q34 0 66 9t56.5 26.5t39.5 43.5t15 60q0 43 -17 71.5t-46 45t-67 23.5t-79 7h-37v115h37q43 0 79.5 8t62 24.5t40 41.5t14.5 59q0 33 -13.5 57.5t-36 40
t-51.5 23.5t-60 8q-34 0 -65.5 -9.5t-57.5 -27t-46 -42t-32 -54.5q-32 12 -63 26.5t-62 26.5q20 53 54 91.5t78 63t95.5 36.5t106.5 12q61 0 116.5 -16.5t96.5 -48t65.5 -76.5t24.5 -103q0 -32 -10.5 -63.5t-30 -57.5t-46 -45.5t-57.5 -27.5v-2q40 -10 70 -31.5t49.5 -49.5
t29 -60.5t9.5 -63.5q0 -56 -22.5 -104t-65 -83.5t-104.5 -56t-140 -20.5q-63 0 -118 17t-98 46.5t-72.5 68t-40.5 81.5z" />
    <glyph glyph-name="twothirds" unicode="&#x2154;" horiz-adv-x="1737" 
d="M176 555v154q99 54 185 103.5t149.5 102t100 110.5t36.5 128q0 37 -12 67.5t-34.5 53t-53.5 35t-70 12.5q-42 0 -74 -15t-53.5 -39t-32.5 -55t-10 -63l-151 8q0 68 24 122.5t67 93t103 59t133 20.5q67 0 125.5 -21t101.5 -60t68 -94t25 -122q0 -61 -19.5 -114t-52.5 -98
t-76 -83.5t-90 -69.5t-94.5 -56t-89.5 -44v-2h432v-133h-637zM1039 245q27 -65 79 -103t127 -38q34 0 66 9t56.5 26.5t39.5 43.5t15 60q0 43 -17 71.5t-46 45t-67 23.5t-79 7h-37v115h37q43 0 79.5 8t62 24.5t40 41.5t14.5 59q0 33 -13.5 57.5t-36 40t-51.5 23.5t-60 8
q-34 0 -65.5 -9.5t-57.5 -27t-46 -42t-32 -54.5q-32 12 -63 26.5t-62 26.5q20 53 54 91.5t78 63t95.5 36.5t106.5 12q61 0 116.5 -16.5t96.5 -48t65.5 -76.5t24.5 -103q0 -32 -10.5 -63.5t-30 -57.5t-46 -45.5t-57.5 -27.5v-2q40 -10 70 -31.5t49.5 -49.5t29 -60.5
t9.5 -63.5q0 -56 -22.5 -104t-65 -83.5t-104.5 -56t-140 -20.5q-63 0 -118 17t-98 46.5t-72.5 68t-40.5 81.5z" />
    <glyph glyph-name="minus" unicode="&#x2212;" horiz-adv-x="1106" 
d="M137 829h830v-161h-830v161z" />
    <glyph glyph-name="approxequal" unicode="&#x2248;" horiz-adv-x="1106" 
d="M768 994q35 0 47 17.5t14 49.5v8h138v-28q0 -95 -41.5 -150t-132.5 -55q-25 0 -64.5 5.5t-84.5 14t-93 18.5t-90 18.5t-75.5 14t-49.5 5.5q-35 0 -47.5 -18t-14.5 -50v-8h-137v29q0 47 10 85t31 64.5t54 40.5t79 14q25 0 64.5 -5.5t85.5 -14t93 -18.5l90 -18
q43 -8 76 -13.5t48 -5.5zM768 588q35 0 47 17.5t14 49.5v8h138v-28q0 -95 -41.5 -150t-132.5 -55q-25 0 -64.5 5.5t-84.5 14t-93 18.5t-90 18.5t-75.5 14t-49.5 5.5q-35 0 -47.5 -18t-14.5 -50v-8h-137v29q0 47 10 85t31 64.5t54 40.5t79 14q25 0 64.5 -5.5t85.5 -14
t93 -18.5l90 -18q43 -8 76 -13.5t48 -5.5z" />
    <glyph glyph-name="notequal" unicode="&#x2260;" horiz-adv-x="1106" 
d="M135 579h270l111 273h-381v159h445l102 249h149l-101 -249h235v-159h-299l-110 -273h409v-159h-474l-96 -238h-151l96 238h-205v159z" />
    <glyph glyph-name="lessequal" unicode="&#x2264;" horiz-adv-x="1106" 
d="M967 0h-830v162h830v-162zM967 342l-830 326v161l830 326v-180l-621 -227l621 -224v-182z" />
    <glyph glyph-name="greaterequal" unicode="&#x2265;" horiz-adv-x="1106" 
d="M137 524l621 224l-621 227v180l830 -326v-161l-830 -326v182zM137 162h830v-162h-830v162z" />
    </font>
</defs>
</svg>
